<svg width="121" height="19" viewBox="0 0 121 19" fill="none" xmlns="http://www.w3.org/2000/svg">
<path d="M0.0507812 18H3.58984V11.8125H6.48438L9.63672 18H13.6445L10.082 11.2852C12.0156 10.5234 13.1406 8.66016 13.1406 6.49219V6.46875C13.1406 3.14062 10.9375 1.08984 7.09375 1.08984H0.0507812V18ZM3.58984 9.23438V3.85547H6.66016C8.42969 3.85547 9.51953 4.91016 9.51953 6.53906V6.5625C9.51953 8.22656 8.47656 9.23438 6.70703 9.23438H3.58984ZM22.7794 18.4336C27.7716 18.4336 30.9122 15.0117 30.9122 9.55078V9.52734C30.9122 4.06641 27.7598 0.65625 22.7794 0.65625C17.7989 0.65625 14.6348 4.05469 14.6348 9.52734V9.55078C14.6348 15.0117 17.752 18.4336 22.7794 18.4336ZM22.7794 15.4336C19.9903 15.4336 18.2442 13.125 18.2442 9.55078V9.52734C18.2442 5.94141 20.0255 3.65625 22.7794 3.65625C25.5216 3.65625 27.3028 5.94141 27.3028 9.52734V9.55078C27.3028 13.125 25.5333 15.4336 22.7794 15.4336ZM38.9923 18.4336C43.2111 18.4336 45.8127 16.3125 45.8127 12.9609V12.9492C45.8127 10.3125 44.2541 8.88281 40.6798 8.14453L38.8869 7.78125C36.8947 7.37109 36.0744 6.71484 36.0744 5.61328V5.60156C36.0744 4.33594 37.2345 3.53906 38.9806 3.52734C40.7619 3.52734 41.9338 4.37109 42.133 5.57812L42.1564 5.71875H45.4845L45.4728 5.56641C45.2502 2.74219 42.9298 0.65625 38.9806 0.65625C35.2306 0.65625 32.5353 2.73047 32.5353 5.87109V5.88281C32.5353 8.44922 34.047 10.0898 37.5627 10.8047L39.3439 11.168C41.4416 11.6016 42.2736 12.2227 42.2736 13.3359V13.3477C42.2736 14.6484 40.9728 15.5508 39.0861 15.5508C37.1056 15.5508 35.7345 14.6953 35.6056 13.4297L35.5939 13.3125H32.1838L32.1955 13.5C32.3947 16.5 34.9494 18.4336 38.9923 18.4336ZM47.8342 18H51.3733V1.08984H47.8342V18ZM52.9378 18H56.6527L57.9066 13.8984H63.8714L65.1253 18H68.8519L62.9691 1.08984H58.8089L52.9378 18ZM60.7894 4.46484H61.0003L63.0628 11.25H58.7152L60.7894 4.46484Z" fill="#E02386"/>
<path d="M75.2505 18H81.9067C86.9692 18 89.8403 14.9062 89.8403 9.44531V9.42188C89.8403 4.125 86.9341 1.08984 81.9067 1.08984H75.2505V18ZM78.7895 15.082V4.00781H81.3442C84.4145 4.00781 86.2309 6 86.2309 9.48047V9.50391C86.2309 13.1133 84.4731 15.082 81.3442 15.082H78.7895ZM91.8736 18H99.4673C103.077 18 105.315 16.1367 105.315 13.1719V13.1484C105.315 10.9805 103.686 9.30469 101.448 9.12891V8.91797C103.182 8.66016 104.506 7.10156 104.506 5.32031V5.29688C104.506 2.69531 102.549 1.08984 99.2681 1.08984H91.8736V18ZM98.3658 3.71484C100.053 3.71484 101.026 4.53516 101.026 5.90625V5.92969C101.026 7.32422 99.983 8.12109 98.0728 8.12109H95.4127V3.71484H98.3658ZM98.483 10.4531C100.569 10.4531 101.706 11.2969 101.706 12.8672V12.8906C101.706 14.4961 100.604 15.3633 98.565 15.3633H95.4127V10.4531H98.483ZM113.231 18.4336C117.45 18.4336 120.051 16.3125 120.051 12.9609V12.9492C120.051 10.3125 118.493 8.88281 114.919 8.14453L113.126 7.78125C111.133 7.37109 110.313 6.71484 110.313 5.61328V5.60156C110.313 4.33594 111.473 3.53906 113.219 3.52734C115.001 3.52734 116.173 4.37109 116.372 5.57812L116.395 5.71875H119.723L119.712 5.56641C119.489 2.74219 117.169 0.65625 113.219 0.65625C109.469 0.65625 106.774 2.73047 106.774 5.87109V5.88281C106.774 8.44922 108.286 10.0898 111.801 10.8047L113.583 11.168C115.68 11.6016 116.512 12.2227 116.512 13.3359V13.3477C116.512 14.6484 115.212 15.5508 113.325 15.5508C111.344 15.5508 109.973 14.6953 109.844 13.4297L109.833 13.3125H106.423L106.434 13.5C106.633 16.5 109.188 18.4336 113.231 18.4336Z" fill="#272833"/>
</svg>
