<?xml version="1.0" encoding="UTF-8"?>
<svg width="24px" height="24px" viewBox="0 0 24 24" version="1.1" xmlns="http://www.w3.org/2000/svg" xmlns:xlink="http://www.w3.org/1999/xlink">
    <!-- Generator: Sketch 55 (78076) - https://sketchapp.com -->
    <title>Fill 1</title>
    <desc>Created with Sketch.</desc>
    <g id="SRN" stroke="none" stroke-width="1" fill="none" fill-rule="evenodd">
        <g id="6.-Create-SRN---Existing-Invoice-/-Web-and-mobile-apps" transform="translate(-20.000000, -20.000000)" fill="#FFFFFF">
            <g id="navigation-bar-mini">
                <g id="logo-menu">
                    <path d="M31.8602867,43 C31.7101254,43 31.5609677,42.9961872 31.4123118,42.9905294 C31.2277778,42.9833957 31.0442473,42.9719573 30.8619713,42.956214 C30.8588351,42.955968 30.8555735,42.955722 30.8523118,42.955353 C30.6692832,42.9393637 30.487509,42.9191926 30.3069892,42.8948397 C30.3049821,42.8944707 30.3028495,42.8942247 30.3007168,42.8938557 C30.1191935,42.8692568 29.9389247,42.8403531 29.7602867,42.8071446 C29.7594086,42.8070216 29.7587814,42.8068986 29.7579032,42.8067756 C27.5976882,42.4061825 25.6529928,41.4003335 24.115,39.976549 C24.113871,39.9754421 24.1126165,39.9743351 24.111362,39.9733512 C23.9860394,39.8571214 23.8636022,39.7380627 23.7436738,39.6164211 C23.7400358,39.6127313 23.7362724,39.6090415 23.7326344,39.6053516 C23.6153405,39.486047 23.5010573,39.3640364 23.3892832,39.239689 C23.3832616,39.2330473 23.3772401,39.2265285 23.3713441,39.2198868 C23.261828,39.0975073 23.1553226,38.9726679 23.0513262,38.8456146 C23.0439247,38.836513 23.0363978,38.8275344 23.0291219,38.8184328 C22.9270072,38.6928554 22.8277778,38.5650641 22.7313082,38.4351819 C22.7230287,38.4239894 22.7146237,38.4127969 22.7062186,38.4016044 C22.6113799,38.2728291 22.5193011,38.141963 22.4299821,38.0092519 C22.4212007,37.9960915 22.4122939,37.9830541 22.4035125,37.9700167 C22.3156989,37.8381666 22.2306452,37.7043485 22.1484767,37.5688086 C22.1394444,37.5538033 22.1304122,37.5389209 22.1213799,37.5239156 C22.0404659,37.3888676 21.9624373,37.2522207 21.8871685,37.1136059 C21.8785125,37.0974936 21.8697312,37.0812584 21.8610753,37.0651461 C21.7869355,36.9269003 21.7155556,36.7868095 21.6473118,36.6452428 C21.6389068,36.6280236 21.6308781,36.6108044 21.6225986,36.5935852 C21.555233,36.4517725 21.4906272,36.3084839 21.4292832,36.1635964 C21.4218817,36.1460081 21.4144803,36.1281739 21.4070789,36.1104627 C21.346362,35.9652062 21.2886559,35.8184738 21.2342115,35.6701424 C21.2276882,35.6521852 21.2212903,35.634228 21.2148925,35.6162708 C21.1609498,35.4672015 21.1101434,35.3169022 21.062724,35.164881 C21.0572043,35.1474157 21.0520609,35.1298275 21.0466667,35.1123623 C21.0299821,35.0577528 21.0158065,35.0022822 21,34.9474267 C21.8457706,35.8732063 23.0732796,36.4570613 24.4376523,36.4570613 L24.4377778,36.4570613 C24.4581004,36.4570613 24.478172,36.4560773 24.4984946,36.4558313 C24.5365054,36.4553393 24.5746416,36.4548474 24.6125269,36.4533714 C24.6240681,36.4531254 24.6356093,36.4522645 24.647276,36.4517725 C25.4689606,36.4162271 26.2518817,36.171837 26.9383333,35.7365594 L26.9487455,35.746153 L29.3003943,34 L29.3875806,34.2386093 L29.3892115,34.2429141 C30.4043369,37.2265149 33.2432258,39.2310793 36.4533154,39.2310793 C38.6549283,39.2310793 40.6356272,38.2885724 42,36.7944352 C40.1604301,40.4663132 36.3066667,43 31.8602867,43 L31.8602867,43 Z M21,31.8166839 C21.0002427,29.712038 22.6774954,28 24.7389315,28 C26.106993,28 27.3469126,28.761305 28,29.9484204 L24.6909995,33.316498 L24.6780155,33.3304976 C24.6576292,33.3534173 24.6355442,33.3754698 24.6082412,33.4013628 C24.210103,33.7872806 23.6880699,34 23.1380058,34 C21.9600943,34 21.0015775,33.0215156 21.0006067,31.8186661 L21.0006067,31.8166839 L21,31.8166839 Z M42,27.4244709 C41.8968534,27.3079987 41.7913226,27.1931849 41.680396,27.0823258 C40.3719899,25.7739585 38.6685648,25.0145289 36.8483155,24.9192334 C36.845304,24.9192334 36.8422924,24.9188507 36.8391553,24.9188507 C36.7820608,24.915789 36.7248408,24.9136203 36.6674952,24.9120895 C36.6609702,24.9118343 36.654696,24.9115792 36.6480455,24.911324 C36.5850532,24.9097932 36.522061,24.9090278 36.4586924,24.9090278 L36.4583159,24.9090278 L36.457563,24.9090278 L36.4559317,24.9090278 C36.3684704,24.9090278 36.2813856,24.9110689 36.1945517,24.914003 C36.181125,24.9147685 36.1678239,24.9150236 36.1545227,24.9155339 C34.344563,24.989525 32.6378754,25.7228026 31.3223168,26.9971084 L28.3596747,30 C27.5294824,28.6448142 26.0566942,27.7863896 24.4385972,27.7863896 C23.0738494,27.7863896 21.8460031,28.3918411 21,29.3519398 C21.0159363,29.2950432 21.0299903,29.2373811 21.0466795,29.1808672 C21.0520752,29.1627521 21.05722,29.1445095 21.0626158,29.1263944 C21.1101736,28.9688443 21.1609941,28.8126976 21.2149515,28.6580816 C21.2213511,28.6395838 21.2277508,28.6209585 21.2342758,28.6024607 C21.2887353,28.4484826 21.3465827,28.2962905 21.4071907,28.1455017 C21.4145942,28.1271315 21.4218722,28.1088889 21.4294011,28.0906462 C21.4907621,27.9402401 21.5553856,27.79162 21.6228952,27.6445308 C21.6310515,27.6266708 21.6392079,27.6088109 21.6474898,27.5910785 C21.7157522,27.4441169 21.7871518,27.2988136 21.8613119,27.1554239 C21.8699702,27.1385845 21.8786285,27.1220003 21.8874123,27.1052885 C21.9627018,26.9615161 22.0408774,26.8194021 22.1218136,26.6794568 C22.1307229,26.6640208 22.1397576,26.6487122 22.1486669,26.6332762 C22.2309834,26.4925655 22.3160606,26.3537683 22.4040238,26.2168847 C22.4126821,26.2033622 22.4214659,26.1898397 22.4302497,26.1763172 C22.5197187,26.0385406 22.6118228,25.9026776 22.7069386,25.7691108 C22.7150949,25.7576294 22.7233768,25.7461481 22.7315332,25.7347943 C22.8282802,25.5998242 22.9275368,25.4670229 23.0298051,25.3366455 C23.0370831,25.3274603 23.0443611,25.3184028 23.051639,25.3092177 C23.1557895,25.1771818 23.2624497,25.0475698 23.3722469,24.9203816 C23.3778936,24.9137479 23.3837912,24.9071142 23.3895634,24.9004805 C23.5014938,24.7713788 23.6160594,24.6445733 23.733511,24.5207019 C23.7370245,24.5170024 23.7406635,24.5133028 23.744177,24.5096033 C23.8642638,24.3831805 23.9869857,24.2595643 24.1124682,24.1390098 C24.113472,24.1379892 24.1144759,24.1372238 24.1153543,24.1362032 C25.6538953,22.6593148 27.5992507,21.6159123 29.7603105,21.2004139 C29.7611889,21.2002863 29.7618163,21.2001588 29.7626946,21.2000312 C29.9415072,21.165587 30.1218256,21.1356079 30.3033988,21.1100937 C30.3054065,21.109711 30.3074142,21.1094558 30.3094219,21.1092007 C30.4901168,21.0838141 30.6720664,21.0627649 30.8552709,21.0463082 C30.8584079,21.0459255 30.8614195,21.0456704 30.8644311,21.0454152 C31.0468827,21.0290862 31.2304636,21.0172221 31.4152993,21.009823 C31.5639961,21.0039547 31.7131948,21 31.8632719,21 C36.3063566,21 40.1576658,23.6223476 42,27.4244709 L42,27.4244709 Z M43,32.2164061 C43,35.9569222 40.046761,39 36.4167971,39 C33.5785249,39 31.0684999,37.1373684 30.1689962,34.3595637 L30,33.873505 L36.2042567,29.0317306 L36.2059837,29.0335101 L36.4599713,28.8378919 C37.1713589,28.2896777 38.0183135,28 38.9085656,28 C41.1335174,28 42.9248769,29.7875111 42.998273,32.0736645 C42.9993832,32.1213298 43,32.1687408 43,32.2164061 L43,32.2164061 Z M43.9982495,31.8667111 L43.9988747,31.8667111 C43.9987496,31.8599592 43.9981244,31.8533322 43.9979994,31.8464552 C43.915474,25.3000458 38.565455,20 31.9999375,20 C28.9236172,20 26.114629,21.1639645 23.9886007,23.0740216 L23.9809733,23.0807736 C23.9165785,23.1387905 23.8528089,23.1975576 23.7896645,23.2569499 C23.7835376,23.2627016 23.7771607,23.2684533 23.7709088,23.27433 C23.7108903,23.3309715 23.6514971,23.3884883 23.592604,23.4463802 C23.5837262,23.4551327 23.5747235,23.4637603 23.5657207,23.4725128 C23.5095785,23.528154 23.4540614,23.5844205 23.3990445,23.641062 C23.387791,23.6526904 23.3762875,23.6641937 23.365034,23.6758221 C23.3123929,23.7304631 23.2605019,23.7856041 23.2088611,23.8411203 C23.195732,23.8553745 23.1823529,23.8695036 23.1692239,23.8838828 C23.1197087,23.9376485 23.0708186,23.9920393 23.0223037,24.0466803 C23.0076742,24.0633101 22.9929197,24.0798149 22.9782902,24.0963198 C22.9317759,24.1494603 22.8858868,24.2029759 22.8402478,24.2568666 C22.8242429,24.2758721 22.8079879,24.2947526 22.791983,24.3138832 C22.7483445,24.3661485 22.7053313,24.4189138 22.6624431,24.4718043 C22.6454379,24.4930605 22.6281826,24.5141916 22.6111774,24.5355729 C22.5699147,24.587338 22.5291522,24.6396032 22.4887648,24.6919935 C22.4710093,24.7151252 22.4531288,24.738132 22.4354984,24.7613887 C22.3964864,24.8129038 22.3579746,24.8646689 22.3198379,24.9168091 C22.3015823,24.9416913 22.2833266,24.9664485 22.2651961,24.9915809 C22.2283097,25.0425958 22.1919236,25.0941108 22.1557875,25.1458759 C22.1371567,25.1725086 22.118651,25.1991414 22.1002704,25.2258992 C22.0653847,25.2767891 22.0308741,25.327929 21.9968636,25.379319 C21.9779828,25.4075772 21.9593521,25.4358355 21.9407214,25.4643438 C21.9078363,25.5149835 21.8752012,25.5657483 21.8429413,25.6170133 C21.8240605,25.646772 21.8054298,25.6766557 21.7867991,25.7066644 C21.7556645,25.7570541 21.724905,25.8075689 21.6945207,25.8584587 C21.6757649,25.8898429 21.6571342,25.9213521 21.6386285,25.9529863 C21.6091195,26.0031259 21.5801106,26.0536406 21.5513517,26.1042804 C21.532846,26.137165 21.5143403,26.1700496 21.4960847,26.2031843 C21.4683262,26.2530738 21.4410678,26.3030884 21.4141846,26.3533531 C21.3956789,26.3878631 21.3774233,26.4224982 21.3592927,26.4572584 C21.3332847,26.5068978 21.3075268,26.5566624 21.282269,26.6066769 C21.2641385,26.6425624 21.246383,26.678698 21.2285025,26.7148335 C21.2042451,26.7640979 21.1801126,26.8134873 21.1564804,26.8631267 C21.1385999,26.9006377 21.1212195,26.9383987 21.1037142,26.9760347 C21.0809572,27.025174 21.0584503,27.0743133 21.0363185,27.1237027 C21.0190631,27.1624641 21.002183,27.2012254 20.9853028,27.2402367 C20.9640462,27.289251 20.9427897,27.3383904 20.9221584,27.3879048 C20.9055283,27.4276664 20.8892733,27.4678031 20.8730183,27.5079398 C20.8532622,27.5568291 20.8335061,27.6057183 20.8142502,27.6549827 C20.7982453,27.6961197 20.7827405,27.7375068 20.7671107,27.7788938 C20.7487301,27.8276581 20.7303494,27.8765473 20.712594,27.9255616 C20.6972142,27.967949 20.6824597,28.0105864 20.6675801,28.0530988 C20.6505749,28.101738 20.6335697,28.1502522 20.6173147,28.1990164 C20.6026852,28.2427791 20.5885559,28.286792 20.5744265,28.3306798 C20.5589218,28.3789439 20.5432919,28.427333 20.5282873,28.4758471 C20.5146582,28.5204851 20.5015291,28.5654983 20.488275,28.6103864 C20.4738956,28.6587755 20.4595162,28.7071646 20.445762,28.7560538 C20.4330081,28.8014421 20.4208793,28.8472054 20.4087506,28.8928437 C20.3956216,28.9412329 20.3824925,28.989747 20.3701137,29.0383862 C20.3582351,29.0852749 20.3469816,29.1325387 20.3356031,29.1796774 C20.3239746,29.2275664 20.3122209,29.2753303 20.3012176,29.3234693 C20.2902142,29.3717334 20.279961,29.4204976 20.2694578,29.4690118 C20.2592047,29.5164006 20.2487014,29.5637894 20.2390735,29.6114283 C20.2289454,29.6611928 20.2198175,29.7112074 20.2103146,29.761222 C20.2014369,29.8081107 20.1921841,29.8548743 20.1838065,29.9018881 C20.1749288,29.9527779 20.1668013,30.0039178 20.1584237,30.0550577 C20.1507963,30.1018214 20.1427939,30.1483349 20.1356667,30.1952236 C20.1277893,30.2471137 20.1209122,30.2992539 20.113785,30.3512691 C20.107408,30.3976577 20.1005309,30.4440462 20.0946541,30.4906848 C20.087777,30.5445755 20.0821502,30.5987163 20.0760234,30.652732 C20.0710218,30.6978702 20.0653951,30.7428833 20.0608937,30.7881465 C20.055267,30.8442879 20.0507656,30.9006794 20.0457641,30.9570708 C20.0420129,31.0007085 20.0377616,31.0443463 20.0343856,31.0882341 C20.0300092,31.1475014 20.0266332,31.2072688 20.0230071,31.2669112 C20.0205063,31.3079231 20.0175054,31.3488101 20.0153797,31.3900721 C20.0120037,31.4577168 20.009878,31.5258617 20.0076273,31.5938815 C20.006502,31.6272663 20.0047515,31.660526 20.0038762,31.6939107 C20.0013754,31.7955654 20,31.8975951 20,31.999875 C20,32.1021548 20.0013754,32.2041846 20.0038762,32.3058392 C20.0047515,32.3390989 20.006502,32.3721085 20.0076273,32.4053682 C20.009878,32.4735131 20.0120037,32.541783 20.0153797,32.6096778 C20.0173803,32.6504397 20.0205063,32.6909515 20.0230071,32.7315884 C20.0266332,32.7916059 20.0298842,32.8517484 20.0343856,32.9116409 C20.0377616,32.9550285 20.0420129,32.9980411 20.0457641,33.0413037 C20.0506406,33.0981953 20.0551419,33.1550869 20.0608937,33.2117284 C20.0653951,33.2563664 20.0708968,33.3007544 20.0758983,33.3452674 C20.0820252,33.4000333 20.087777,33.4547993 20.0946541,33.5093152 C20.1004059,33.5552036 20.1071579,33.6007169 20.1134098,33.6462302 C20.1207871,33.6992456 20.1277893,33.7522611 20.1356667,33.8049014 C20.1426688,33.8507898 20.1505463,33.8963031 20.1579235,33.9420664 C20.1665512,33.9942066 20.1748037,34.0464719 20.1839315,34.0984871 C20.192059,34.1443754 20.2010618,34.1900138 20.2098145,34.2356521 C20.2194424,34.286792 20.2288203,34.3380569 20.2391985,34.3889468 C20.2485764,34.4353353 20.2588295,34.4814738 20.2688326,34.5277373 C20.2795859,34.5776268 20.2900891,34.6275164 20.3013426,34.6772809 C20.3120959,34.7239195 20.3234744,34.770183 20.3347279,34.8166965 C20.3464815,34.8652107 20.35811,34.9139749 20.3703638,34.962364 C20.3823675,35.0095028 20.3951214,35.0562664 20.4076253,35.1030301 C20.4203792,35.1505439 20.432883,35.1979327 20.4461371,35.2450715 C20.4593912,35.2920852 20.4732704,35.3388488 20.4871497,35.3857375 C20.5009039,35.4323761 20.5145331,35.4788897 20.5287875,35.5252782 C20.5431669,35.5720418 20.5581715,35.6186804 20.5731761,35.665194 C20.5879307,35.7110824 20.6025602,35.7568457 20.6178148,35.8024841 C20.6335697,35.8493727 20.6498247,35.8958863 20.6660797,35.9425249 C20.6815844,35.9871629 20.6970892,36.0318009 20.7132192,36.0760639 C20.7303494,36.1230776 20.7478548,36.1698412 20.7654852,36.2167299 C20.7818653,36.2602426 20.7982453,36.3037553 20.8151255,36.3470179 C20.8335061,36.3940316 20.8523869,36.4407952 20.8712677,36.4874338 C20.888398,36.5298212 20.9055283,36.5723336 20.9232837,36.6144709 C20.9429147,36.6616096 20.963171,36.7084983 20.9834272,36.755262 C21.0013077,36.796524 21.0191882,36.837786 21.0375688,36.8786729 C21.0585753,36.9258117 21.0800819,36.9727004 21.1017135,37.019464 C21.1202192,37.0596007 21.13885,37.0997374 21.1578558,37.139499 C21.1803627,37.1867628 21.2032447,37.2337765 21.2263769,37.2807902 C21.2453827,37.3193015 21.2645136,37.3578127 21.2838945,37.3963239 C21.3079019,37.4438378 21.3324094,37.4912266 21.357167,37.5384904 C21.376548,37.5757513 21.396179,37.6128871 21.4159351,37.6498979 C21.441568,37.6976618 21.4674509,37.7450506 21.493584,37.7923144 C21.5134651,37.8281999 21.5334712,37.8639603 21.5537274,37.8994707 C21.5807357,37.9473596 21.6082442,37.9949985 21.6360027,38.0425124 C21.6561339,38.0768974 21.6765152,38.1112825 21.6970215,38.1455424 C21.7257803,38.1935565 21.7547892,38.2413204 21.7842983,38.2889593 C21.8045545,38.3218439 21.8250608,38.3547285 21.8458172,38.387363 C21.8762015,38.4356271 21.906961,38.4836411 21.9380956,38.53153 C21.9584768,38.5627891 21.9791082,38.5940483 21.9998645,38.6251823 C22.0321245,38.6736965 22.0646344,38.7220856 22.0976446,38.7700996 C22.1180259,38.7998583 22.1385322,38.8294919 22.1591635,38.8588755 C22.193299,38.9076397 22.2276845,38.9562789 22.2624452,39.004418 C22.2827015,39.0326762 22.3032078,39.0605593 22.3237141,39.0884425 C22.3597251,39.1374568 22.3959863,39.186221 22.4326225,39.2346101 C22.4527537,39.2611178 22.4730099,39.2873755 22.4932662,39.3136331 C22.5312778,39.3628975 22.5695396,39.4120368 22.6084265,39.4608011 C22.6278075,39.4853082 22.6475636,39.5095653 22.6671946,39.5338224 C22.707582,39.5837119 22.7480945,39.6333514 22.7891071,39.6824907 C22.8078628,39.7049973 22.8268687,39.7271287 22.8457495,39.7493852 C22.8886377,39.800025 22.9317759,39.8504147 22.9754143,39.9001792 C22.9929197,39.9201851 23.0106752,39.9399408 23.0283056,39.9598216 C23.0739446,40.0112116 23.1198337,40.0623515 23.166473,40.1129913 C23.182603,40.1306214 23.198983,40.1480015 23.215238,40.1655066 C23.263878,40.2177719 23.3126429,40.269662 23.3621582,40.321052 C23.3767877,40.3361814 23.3916672,40.3511858 23.4062967,40.3663152 C23.4581877,40.4194557 23.5103287,40.4723461 23.5629699,40.5246113 C23.5754737,40.5368649 23.5881026,40.5489935 23.6006064,40.5613721 C23.6561235,40.6157629 23.7117656,40.6697787 23.768283,40.7231693 C23.778286,40.732422 23.7882891,40.7416747 23.7982922,40.7510524 C23.8578105,40.8068187 23.9178289,40.8622098 23.9784726,40.9168507 C23.9848495,40.9226024 23.9913515,40.9283541 23.9977285,40.9339807 C24.0623733,40.9918726 24.1275184,41.0492644 24.1932886,41.1059059 L24.19804,41.1099071 C26.2975602,42.9104322 29.0236479,44 31.9999375,44 C38.6167208,44 44,38.6168049 44,31.999875 C44,31.955362 43.9987496,31.9110991 43.9982495,31.8667111 L43.9982495,31.8667111 Z" id="Fill-1"></path>
                </g>
            </g>
        </g>
    </g>
</svg>