<?xml version="1.0" encoding="UTF-8"?>
<svg width="24px" height="24px" viewBox="0 0 24 24" version="1.1" xmlns="http://www.w3.org/2000/svg" xmlns:xlink="http://www.w3.org/1999/xlink">
    <!-- Generator: sketchtool 55.2 (78181) - https://sketchapp.com -->
    <title>FEE0F7EE-67A6-4473-B822-BCA1FC3EFF44</title>
    <desc>Created with sketchtool.</desc>
    <defs>
        <linearGradient x1="34.4397906%" y1="16.5863874%" x2="53.4397906%" y2="61.5863874%" id="linearGradient-1">
            <stop stop-color="#E02386" offset="0%"></stop>
            <stop stop-color="#D82486" offset="18%"></stop>
            <stop stop-color="#C32784" offset="46%"></stop>
            <stop stop-color="#A12C82" offset="80%"></stop>
            <stop stop-color="#893081" offset="100%"></stop>
        </linearGradient>
    </defs>
    <g id="Login" stroke="none" stroke-width="1" fill="none" fill-rule="evenodd">
        <g id="Login1" transform="translate(-198.000000, -694.000000)" fill="url(#linearGradient-1)" fill-rule="nonzero">
            <g id="logo" transform="translate(198.000000, 694.000000)">
                <path d="M3.23161351e-05,12.0281504 C5.29130072e-06,12.0211489 -4.77618077e-06,12.0141495 2.0857631e-06,12.0071521 C6.95318269e-07,12.0047683 -2.43614652e-15,12.0023842 -2.43614652e-15,12 C-2.43614652e-15,5.372583 5.372583,3.65421978e-14 12,3.65421978e-14 C18.5680377,3.65421978e-14 23.9036264,5.2767414 23.9987091,11.8221672 C23.999215,11.8411823 23.9996454,11.8602153 24,11.879266 C24,11.8887952 24,11.8983244 23.9996531,11.907786 C23.9998842,11.9384967 24,11.9692348 24,12 C24,15.1825979 22.7357179,18.2348448 20.4852814,20.4852814 C18.2348448,22.7357179 15.1825979,24 12,24 C5.381969,24 0.0152202241,18.6426239 3.23161351e-05,12.0281504 Z M22.2244887,7.32243423 C20.4507166,3.44675318 16.540674,0.752714538 12.0000002,0.747643988 L12.0000002,0.753926711 C7.44713529,0.748843257 3.33986547,3.48784655 1.59462296,7.6929309 C1.40445324,8.15113641 1.24641258,8.61690886 1.11992101,9.08732506 C1.59772979,8.54894509 2.21236909,8.11584592 2.93223264,7.84334692 C4.99398495,7.06288589 7.33475984,7.82094641 8.50438908,9.64789115 L11.4577294,6.78684063 C12.7609525,5.57415573 14.4753056,4.86742772 16.2773294,4.8 L16.9685367,4.8 C19.0770533,4.90750295 20.9447201,5.86478367 22.2244887,7.32243423 Z M23.2388183,11.850388 C23.1785579,10.3587696 22.276394,9.02056669 20.8925315,8.37294062 C19.5016327,7.72202162 17.8542519,7.87641606 16.6166495,8.77368123 L16.3590177,8.96319527 L10.075315,13.597119 L10.244975,14.0617341 C11.1523761,16.714694 13.7050544,18.5033887 16.5789473,18.5000352 C20.2581602,18.48993 23.2362257,15.5871312 23.2396722,12.0076465 L23.2396722,11.9473709 C23.239524,11.9150108 23.2392392,11.882683 23.2388183,11.850388 Z M22.2704392,16.5758862 C21.1577948,17.8869484 19.5722787,18.8156687 17.7386466,19.1057501 C14.1554939,19.6726066 10.6767747,17.6343355 9.51606522,14.2879282 L9.42809338,14.0495073 L7.08427227,15.779587 C6.40267872,16.2098999 5.61506581,16.4547658 4.80328818,16.4887363 L4.59592599,16.4887363 C3.22528316,16.4875213 1.97548544,15.8982726 1.126088,14.9469821 C1.6287667,16.8045242 2.60908971,18.5403704 4.02859628,19.9606705 C7.24706027,23.1809337 12.0889146,24.1443914 16.2949734,22.4014989 C19.0142543,21.2746925 21.1212917,19.1602591 22.2704392,16.5758862 Z M4.60220974,8.26015941 C2.48854088,8.2735319 0.779433933,9.93903195 0.769151034,11.9954198 C0.771039857,12.8484024 1.29349507,13.6188117 2.09879218,13.9561004 C2.90408929,14.2933892 3.83837483,14.1331179 4.47653568,13.5482122 L4.55194011,13.4809653 L7.96399073,10.1736398 C7.28082968,8.99195023 5.99576754,8.26051021 4.60220974,8.26015941 Z" id="Combined-Shape"></path>
            </g>
        </g>
    </g>
</svg>