<?xml version="1.0" encoding="UTF-8"?><!DOCTYPE svg PUBLIC "-//W3C//DTD SVG 1.1//EN" "http://www.w3.org/Graphics/SVG/1.1/DTD/svg11.dtd">
<svg xmlns="http://www.w3.org/2000/svg">

    <symbol id="add-cell" viewBox="0 0 512 512">
        <path class="lexicon-icon-body" fill="none" d="M455.1,0H56.9C25.5,0,0,25.5,0,56.9v398.2C0,486.5,25.5,512,56.9,512h398.2c31.4,0,56.9-25.5,56.9-56.9V56.9
	C512,25.5,486.5,0,455.1,0z"/>
        <path class="lexicon-icon-outline" d="M455.1,0H56.9C25.5,0,0,25.5,0,56.9v398.2C0,486.5,25.5,512,56.9,512h398.2c31.4,0,56.9-25.5,56.9-56.9V56.9
	C512,25.5,486.5,0,455.1,0z M160,448H64v-96h96V448z M160,320H64V192h96V320z M160,160H64V64h96V160z M320,448H192v-96h128V448z
	 M320,160H192V64h128V160z M448,448h-96v-96h96V448z M448,320h-96V192h96V320z M448,160h-96V64h96V160z"/>
    </symbol>
    </svg>