<?xml version="1.0" encoding="UTF-8"?>
<svg width="21px" height="18px" viewBox="0 0 24 18" version="1.1" xmlns="http://www.w3.org/2000/svg" xmlns:xlink="http://www.w3.org/1999/xlink">
    <title>1DC548FE-58A7-4C01-B198-D58E1154617F</title>
    <g id="↳-Orders" stroke="none" stroke-width="1" fill="none" fill-rule="evenodd">
        <g id="Create-Order---Filled" transform="translate(-20.000000, -23.000000)" fill="#1668CB" fill-rule="nonzero">
            <g id="Upaya---Responsive-Logo" transform="translate(20.000000, 23.000000)">
                <path d="M11.6452579,15.407024 C10.7783019,15.9010846 10.0117393,16.3542574 9.23071329,16.7810235 C7.91028581,17.5016705 6.52349664,18.0025458 4.99292381,18 C2.86594656,17.9948793 0.93380042,16.5603999 0.408011643,14.4879009 C0.163684807,13.572097 0.0288825127,12.6304754 0.00643833806,11.6828293 C-0.019085389,8.39136359 0.0379176014,5.09904603 0.0617397466,1.8075803 C0.0617397466,1.4949592 0.0557842103,1.18318993 0.0617397466,0.870568835 C0.0617397466,0.477875848 0.271885099,0.174624864 0.64112835,0.136292577 C1.49191925,0.0511097163 2.35632281,0.00340731442 3.21477083,0 C3.71503588,0 4.04514274,0.327102185 4.09278703,0.822866433 C4.17786613,1.68150967 4.24763098,2.54526387 4.24763098,3.40646259 C4.24763098,5.60503223 4.15064082,7.80530551 4.20679302,10.0013197 C4.22891358,10.9034062 4.45352238,11.8293438 4.7504484,12.6879871 C5.19541204,13.9742483 6.33206869,14.5211222 7.65079458,14.1625024 C8.3042027,13.9814154 8.93781279,13.735139 9.54210276,13.4273743 C10.6285627,12.8779449 11.1662626,11.898342 11.1892339,10.7296331 C11.2445353,7.90752495 11.2105037,5.08456495 11.221564,2.26160495 C11.2144737,1.80916809 11.2429211,1.35687332 11.3066431,0.908901122 C11.3629131,0.464517237 11.7277854,0.123554306 12.1744498,0.0979602897 C12.8227304,0.0310104935 13.4749217,0.0099464066 14.1261641,0.0349249728 C14.981209,0.0766645745 15.3317348,0.468505733 15.351303,1.34248188 C15.3708712,2.21645803 15.351303,3.07339761 15.351303,3.93885547 C15.3433623,7.927117 15.3357052,11.9150946 15.3283317,15.9027882 C15.3283317,16.1157454 15.3283317,16.3287025 15.3164206,16.5408079 C15.2806874,17.206086 14.9301615,17.5834461 14.264843,17.6558515 C13.9832313,17.6865173 13.6982163,17.6779991 13.4140521,17.6975911 C12.4126713,17.7657374 11.9591997,17.2665658 11.7975494,16.2409642 C11.762667,15.9956376 11.7107688,15.7520146 11.6452579,15.407024 Z" id="Path"></path>
                <path d="M23.9997896,12.073722 C23.9960324,12.6458889 23.7377288,13.1931006 23.2820925,13.5941508 C22.8264562,13.9952009 22.2110956,14.2169867 21.572312,14.210383 C20.2171711,14.1983972 19.1858723,13.2307471 19.2001464,11.9842284 C19.2135283,10.7560878 20.2706988,9.85076366 21.6731224,9.86674467 C23.0077444,9.88112758 24.01674,10.83839 23.9997896,12.073722 Z" id="Path"></path>
                <path d="M23.9997896,5.03888181 C23.9864077,6.25903186 22.9470797,7.17714083 21.5856939,7.16999133 C20.2243082,7.16275792 19.1894409,6.22147648 19.2001464,4.97096252 C19.2099598,3.73882671 20.2635617,2.82711014 21.6606326,2.8422921 C23.0006073,2.85747406 24.0104951,3.8051479 23.9997896,5.03888181 Z" id="Path"></path>
            </g>
        </g>
    </g>
</svg>