<svg width="83" height="30" viewBox="0 0 83 30" fill="none" xmlns="http://www.w3.org/2000/svg">
<g clip-path="url(#clip0_3248_22084)">
<path d="M12.0685 27C5.49121 27 0.137085 21.6185 0.137085 15C0.137085 8.38154 5.48871 3 12.0685 3C18.6483 3 23.9999 8.38238 23.9999 15C23.9999 21.6176 18.6467 27 12.0685 27ZM12.0685 3.75524C5.90088 3.75524 0.883008 8.8028 0.883008 15.0059C0.883008 21.209 5.90088 26.2565 12.0685 26.2565C18.2361 26.2565 23.2549 21.2098 23.2549 15.0059C23.2549 8.80196 18.237 3.75189 12.0685 3.75189V3.75524Z" fill="white"/>
<path d="M23.9993 14.933C23.9301 11.0594 20.8762 7.89904 17.0064 7.69633H16.9972C16.9404 7.69633 16.8837 7.69132 16.8303 7.68965H16.8111H16.6232C16.5398 7.68965 16.4504 7.68965 16.3636 7.69466H16.3244C14.5339 7.76439 12.8307 8.48594 11.5353 9.72353L8.59935 12.6504C7.43619 10.7813 5.10658 10.0054 3.05458 10.8035C1.00258 11.6016 -0.190028 13.7476 0.21602 15.9111C0.622068 18.0747 2.51164 19.6424 4.71346 19.6426H4.77357C4.81113 19.6426 4.84953 19.6426 4.88626 19.6426H4.92132C5.72817 19.6063 6.51065 19.355 7.18774 18.9148L7.19776 18.924L9.5293 17.1589L9.61277 17.4V17.4042C10.759 20.8371 14.2259 22.9325 17.7989 22.352C21.3719 21.7716 23.9968 18.6865 23.9968 15.0674C24.001 15.0206 24 14.9764 23.9993 14.933ZM4.70846 11.2366C6.093 11.2379 7.36931 11.9853 8.04757 13.1921L4.6567 16.5721L4.64334 16.5855C4.62068 16.6107 4.59672 16.6346 4.57155 16.6573C3.93676 17.2587 3.00494 17.425 2.2012 17.0803C1.39746 16.7356 0.875843 15.9459 0.874324 15.0716C0.876622 12.9552 2.59161 11.2399 4.70846 11.2366ZM16.6199 21.7023C13.7608 21.7053 11.222 19.8752 10.3215 17.1622L10.1545 16.6865L16.4095 11.951L16.6658 11.7599C17.8966 10.8392 19.5372 10.679 20.9229 11.3442C22.3087 12.0093 23.2096 13.3896 23.2605 14.9255C23.2605 14.9714 23.2605 15.0181 23.2605 15.0649C23.2564 18.7292 20.285 21.698 16.6199 21.6998V21.7023Z" fill="white"/>
<path d="M11.52 26.2516C5.53917 26.019 0.745304 21.0617 0.745304 14.9966C0.745304 8.93155 5.53917 3.97767 11.52 3.74165V3C5.12846 3.23266 0 8.52502 0 14.9992C0 21.4733 5.12762 26.7699 11.52 27V26.2516Z" fill="white"/>
</g>
<path d="M34.0508 24H40.707C45.7695 24 48.6406 20.9062 48.6406 15.4453V15.4219C48.6406 10.125 45.7344 7.08984 40.707 7.08984H34.0508V24ZM37.5898 21.082V10.0078H40.1445C43.2148 10.0078 45.0312 12 45.0312 15.4805V15.5039C45.0312 19.1133 43.2734 21.082 40.1445 21.082H37.5898ZM52.0039 24H59.5977C63.207 24 65.4453 22.1367 65.4453 19.1719V19.1484C65.4453 16.9805 63.8164 15.3047 61.5781 15.1289V14.918C63.3125 14.6602 64.6367 13.1016 64.6367 11.3203V11.2969C64.6367 8.69531 62.6797 7.08984 59.3984 7.08984H52.0039V24ZM58.4961 9.71484C60.1836 9.71484 61.1562 10.5352 61.1562 11.9062V11.9297C61.1562 13.3242 60.1133 14.1211 58.2031 14.1211H55.543V9.71484H58.4961ZM58.6133 16.4531C60.6992 16.4531 61.8359 17.2969 61.8359 18.8672V18.8906C61.8359 20.4961 60.7344 21.3633 58.6953 21.3633H55.543V16.4531H58.6133ZM74.6914 24.4336C78.9102 24.4336 81.5117 22.3125 81.5117 18.9609V18.9492C81.5117 16.3125 79.9531 14.8828 76.3789 14.1445L74.5859 13.7812C72.5938 13.3711 71.7734 12.7148 71.7734 11.6133V11.6016C71.7734 10.3359 72.9336 9.53906 74.6797 9.52734C76.4609 9.52734 77.6328 10.3711 77.832 11.5781L77.8555 11.7188H81.1836L81.1719 11.5664C80.9492 8.74219 78.6289 6.65625 74.6797 6.65625C70.9297 6.65625 68.2344 8.73047 68.2344 11.8711V11.8828C68.2344 14.4492 69.7461 16.0898 73.2617 16.8047L75.043 17.168C77.1406 17.6016 77.9727 18.2227 77.9727 19.3359V19.3477C77.9727 20.6484 76.6719 21.5508 74.7852 21.5508C72.8047 21.5508 71.4336 20.6953 71.3047 19.4297L71.293 19.3125H67.8828L67.8945 19.5C68.0938 22.5 70.6484 24.4336 74.6914 24.4336Z" fill="white"/>
<defs>
<clipPath id="clip0_3248_22084">
<rect width="24" height="24" fill="white" transform="translate(0 3)"/>
</clipPath>
</defs>
</svg>
