<svg width="230" height="261" viewBox="0 0 230 261" fill="none" xmlns="http://www.w3.org/2000/svg">
<g clip-path="url(#clip0_12727_90243)">
<path d="M173.837 138.725C182.053 133.075 193 131.894 200.914 138.112C191.034 141.739 182.564 149.358 177.002 159.622C174.869 163.589 172.848 168.263 169.06 169.743C166.703 170.663 164.072 170.096 161.834 168.829C159.596 167.562 157.677 165.648 155.786 163.756L155.182 163.592C159.753 153.775 165.622 144.375 173.837 138.725Z" fill="#F0F0F0"/>
<path d="M200.827 138.323C192.972 137.622 185.129 139.849 178.411 144.689C176.95 145.701 175.633 146.977 174.509 148.471C173.454 149.968 172.759 151.769 172.497 153.689C172.222 155.473 172.116 157.335 171.477 159.009C171.139 159.86 170.652 160.618 170.047 161.232C169.443 161.846 168.735 162.303 167.97 162.573C166.078 163.304 164.076 163.192 162.121 163.003C159.95 162.792 157.699 162.533 155.62 163.483C155.369 163.598 155.232 163.132 155.483 163.017C159.099 161.364 162.977 163.231 166.69 162.444C168.423 162.078 170.072 161.094 170.927 159.209C171.674 157.56 171.784 155.64 172.05 153.831C172.282 151.954 172.902 150.173 173.855 148.643C174.911 147.086 176.184 145.752 177.62 144.698C180.821 142.264 184.327 140.438 188.011 139.285C192.208 137.941 196.57 137.452 200.908 137.839C201.177 137.863 201.094 138.346 200.827 138.323L200.827 138.323Z" fill="white"/>
<path d="M180.496 142.981C179.959 141.546 179.873 139.932 180.253 138.429C180.634 136.926 181.457 135.631 182.575 134.775C182.801 134.603 183.04 135.009 182.813 135.181C181.771 135.976 181.004 137.183 180.652 138.583C180.3 139.984 180.385 141.486 180.893 142.82C181.003 143.11 180.606 143.27 180.496 142.981H180.496Z" fill="white"/>
<path d="M172.535 152.763C175.067 153.951 177.888 153.973 180.433 152.824C180.686 152.71 180.823 153.176 180.571 153.29C177.92 154.48 174.985 154.45 172.352 153.207C172.101 153.088 172.285 152.645 172.535 152.763Z" fill="white"/>
<path d="M192.129 138.589C192.238 139.195 192.474 139.76 192.815 140.233C193.156 140.705 193.592 141.071 194.083 141.297C194.335 141.412 194.15 141.855 193.9 141.741C193.358 141.488 192.878 141.084 192.5 140.563C192.122 140.041 191.859 139.419 191.732 138.75C191.716 138.689 191.72 138.622 191.744 138.563C191.768 138.505 191.81 138.46 191.862 138.437C191.914 138.416 191.972 138.42 192.022 138.448C192.072 138.477 192.11 138.527 192.129 138.589Z" fill="white"/>
<path d="M204.195 175.808C204.036 175.742 203.876 175.675 203.714 175.611C201.571 174.73 199.371 174.056 197.134 173.594C196.962 173.555 196.787 173.519 196.614 173.486C191.216 172.441 185.701 172.584 180.348 173.907C178.218 174.436 176.126 175.154 174.089 176.056C171.275 177.302 168.31 178.916 165.396 178.994C165.093 179.006 164.788 178.997 164.486 178.964L155.059 164.471C155.051 164.425 155.041 164.382 155.034 164.336L154.635 163.778C154.737 163.723 154.844 163.668 154.946 163.613C155.006 163.581 155.067 163.552 155.126 163.519C155.166 163.499 155.207 163.479 155.242 163.457C155.255 163.451 155.269 163.444 155.279 163.439C155.314 163.418 155.349 163.403 155.382 163.384C155.979 163.077 156.58 162.774 157.184 162.476C157.187 162.473 157.187 162.473 157.192 162.474C161.797 160.214 166.603 158.386 171.492 157.474C171.639 157.447 171.789 157.417 171.94 157.396C174.146 157 176.375 156.816 178.606 156.846C179.828 156.867 181.048 156.961 182.262 157.128C185.397 157.565 188.454 158.579 191.321 160.133C197.036 163.232 201.844 168.446 204.032 175.284C204.088 175.459 204.142 175.63 204.195 175.808Z" fill="#F0F0F0"/>
<path d="M204.017 175.916C198.104 169.795 190.701 166.021 182.86 165.129C181.175 164.902 179.47 164.989 177.808 165.386C176.199 165.834 174.722 166.781 173.53 168.128C172.397 169.357 171.359 170.769 169.992 171.653C169.286 172.094 168.509 172.354 167.712 172.416C166.915 172.479 166.115 172.342 165.366 172.016C163.482 171.26 161.94 169.753 160.476 168.218C158.851 166.513 157.186 164.712 155.04 164C154.78 163.913 154.91 163.444 155.169 163.53C158.902 164.77 161.043 169.006 164.411 171.007C165.982 171.941 167.802 172.324 169.45 171.423C170.891 170.636 171.962 169.181 173.1 167.925C174.247 166.591 175.654 165.607 177.198 165.06C178.838 164.565 180.537 164.401 182.223 164.576C186.025 164.899 189.76 165.923 193.292 167.61C197.331 169.51 201.064 172.207 204.33 175.587C204.532 175.796 204.218 176.124 204.017 175.916H204.017Z" fill="white"/>
<path d="M185.399 165.241C185.705 163.715 186.462 162.366 187.536 161.435C188.609 160.504 189.929 160.053 191.26 160.161C191.314 160.166 191.365 160.195 191.401 160.243C191.437 160.291 191.456 160.354 191.453 160.417C191.451 160.481 191.428 160.542 191.388 160.586C191.349 160.63 191.296 160.654 191.242 160.654C190.003 160.55 188.773 160.971 187.775 161.84C186.777 162.709 186.076 163.969 185.798 165.393C185.737 165.702 185.338 165.549 185.399 165.241V165.241Z" fill="white"/>
<path d="M174.034 167.415C175.448 170.157 177.688 172.171 180.309 173.056C180.569 173.144 180.44 173.613 180.18 173.526C177.455 172.599 175.126 170.497 173.661 167.64C173.521 167.368 173.895 167.144 174.034 167.415Z" fill="white"/>
<path d="M196.936 169.97C196.713 170.532 196.612 171.15 196.643 171.769C196.673 172.388 196.834 172.988 197.11 173.516C197.252 173.786 196.878 174.009 196.737 173.741C196.434 173.156 196.257 172.493 196.222 171.809C196.187 171.125 196.296 170.442 196.537 169.819C196.556 169.758 196.593 169.707 196.642 169.678C196.691 169.648 196.748 169.642 196.801 169.66C196.854 169.68 196.898 169.724 196.923 169.782C196.948 169.84 196.953 169.908 196.936 169.97Z" fill="white"/>
<path d="M13.873 227.166C14.8369 216.032 20.4814 204.938 29.4181 201.089C26.0833 212.611 26.3216 225.148 30.0909 236.483C31.5581 240.848 33.5764 245.524 32.3589 249.994C31.6013 252.775 29.6602 254.939 27.4707 256.317C25.2811 257.696 22.8352 258.39 20.4198 259.07L19.9509 259.547C15.9042 249.417 12.9092 238.3 13.873 227.166Z" fill="#F0F0F0"/>
<path d="M29.5114 201.297C24.3981 208.344 21.3031 217.106 20.666 226.339C20.4988 228.324 20.5988 230.328 20.9621 232.276C21.3682 234.16 22.1961 235.882 23.3596 237.263C24.4225 238.577 25.639 239.775 26.4119 241.369C26.7972 242.192 27.0303 243.102 27.0957 244.038C27.1612 244.974 27.0576 245.916 26.7918 246.802C26.1783 249.03 24.9207 250.865 23.6378 252.61C22.2134 254.547 20.7078 256.533 20.1348 259.067C20.0653 259.374 19.6643 259.229 19.7336 258.923C20.7307 254.514 24.2993 251.932 25.9489 247.941C26.7187 246.079 27.0159 243.933 26.2248 242.01C25.533 240.328 24.2794 239.091 23.1934 237.772C22.0416 236.444 21.1837 234.805 20.6947 232.998C20.2482 231.078 20.0828 229.082 20.2056 227.097C20.4214 222.622 21.2343 218.214 22.6145 214.036C24.1671 209.257 26.4035 204.826 29.2269 200.934C29.4017 200.693 29.685 201.057 29.5114 201.297Z" fill="white"/>
<path d="M20.7223 223.352C19.4195 223.016 18.2606 222.146 17.4527 220.898C16.6447 219.65 16.2404 218.105 16.3118 216.539C16.3153 216.475 16.3397 216.416 16.3799 216.373C16.42 216.329 16.4728 216.306 16.5271 216.308C16.5814 216.31 16.633 216.336 16.671 216.382C16.7091 216.428 16.7307 216.489 16.7312 216.553C16.6624 218.011 17.0392 219.45 17.7936 220.61C18.5479 221.771 19.6302 222.576 20.8449 222.88C21.1089 222.947 20.9847 223.418 20.7223 223.352Z" fill="white"/>
<path d="M22.7462 236.681C25.0556 234.976 26.7337 232.311 27.4459 229.216C27.5163 228.909 27.9174 229.053 27.8471 229.36C27.1008 232.579 25.3496 235.349 22.9432 237.116C22.7137 237.285 22.518 236.848 22.7462 236.681H22.7462Z" fill="white"/>
<path d="M24.5653 209.714C25.0464 209.968 25.5735 210.077 26.0993 210.032C26.625 209.986 27.133 209.788 27.5776 209.455C27.8052 209.284 28.0006 209.72 27.7746 209.891C27.2819 210.256 26.7207 210.474 26.1399 210.526C25.5591 210.577 24.9764 210.46 24.4427 210.186C24.3906 210.165 24.3472 210.122 24.3213 210.064C24.2954 210.007 24.289 209.941 24.3034 209.878C24.3199 209.816 24.3567 209.764 24.4057 209.733C24.4548 209.702 24.5121 209.696 24.5653 209.714Z" fill="white"/>
<path d="M57.2434 220.202C57.1039 220.314 56.9644 220.426 56.8248 220.542C54.9561 222.058 53.1952 223.75 51.5596 225.602C51.4312 225.742 51.3029 225.887 51.1782 226.032C47.2779 230.542 44.1237 235.865 41.8757 241.729C40.983 244.063 40.2426 246.474 39.661 248.941C38.8579 252.347 38.2176 256.116 36.5535 258.928C36.3826 259.224 36.1964 259.507 35.9958 259.776L20.4828 260.182C20.4472 260.162 20.4114 260.147 20.3756 260.127L19.7568 260.176C19.7793 260.047 19.8049 259.913 19.8274 259.783C19.8401 259.708 19.8563 259.632 19.8691 259.557C19.8787 259.507 19.8884 259.457 19.8947 259.411C19.8978 259.394 19.9011 259.377 19.9043 259.365C19.9106 259.319 19.9205 259.277 19.9268 259.235C20.0684 258.486 20.2147 257.737 20.3657 256.987C20.3656 256.983 20.3657 256.983 20.369 256.979C21.5323 251.273 23.1109 245.631 25.3675 240.45C25.4354 240.294 25.5031 240.134 25.5781 239.978C26.6063 237.649 27.7947 235.423 29.1313 233.322C29.8663 232.175 30.6503 231.071 31.4802 230.017C33.6289 227.297 36.1281 224.992 38.8861 223.185C44.3846 219.585 50.801 218.093 56.7872 220.047C56.9403 220.097 57.0902 220.147 57.2434 220.202Z" fill="#F0F0F0"/>
<path d="M57.213 220.434C49.5223 222.441 42.5648 227.246 37.3287 234.167C36.179 235.634 35.233 237.304 34.5256 239.117C33.8851 240.909 33.6643 242.87 33.8863 244.797C34.0626 246.598 34.4202 248.416 34.2211 250.236C34.1075 251.166 33.8279 252.057 33.4008 252.851C32.9737 253.645 32.4088 254.324 31.743 254.843C30.1125 256.187 28.1686 256.762 26.251 257.247C24.1218 257.785 21.903 258.305 20.1482 259.922C19.9356 260.118 19.6894 259.719 19.9017 259.523C22.9549 256.709 27.1266 257.174 30.4867 255.155C32.0547 254.214 33.3907 252.711 33.7438 250.615C34.0526 248.782 33.6852 246.907 33.4933 245.085C33.2533 243.209 33.4075 241.293 33.9424 239.504C34.569 237.655 35.4587 235.944 36.5733 234.446C39.0369 231.026 41.9425 228.082 45.1837 225.723C48.8701 223.007 52.9245 221.052 57.1715 219.944C57.4344 219.875 57.4742 220.366 57.213 220.434H57.213Z" fill="white"/>
<path d="M38.9023 231.822C38.0341 230.631 37.554 229.116 37.5479 227.548C37.5418 225.98 38.01 224.46 38.8689 223.26C39.0434 223.017 39.3716 223.325 39.1968 223.567C38.3953 224.683 37.9592 226.099 37.9675 227.56C37.9757 229.02 38.4276 230.429 39.2417 231.532C39.4184 231.772 39.0779 232.061 38.9023 231.822Z" fill="white"/>
<path d="M33.6944 243.897C36.4111 244.171 39.1157 243.231 41.269 241.264C41.4823 241.069 41.7285 241.468 41.5155 241.663C39.2715 243.705 36.4552 244.676 33.6287 244.384C33.3593 244.356 33.4265 243.869 33.6944 243.897Z" fill="white"/>
<path d="M48.953 223.653C49.2073 224.196 49.5723 224.657 50.0152 224.993C50.4582 225.329 50.9652 225.531 51.4907 225.579C51.7603 225.603 51.6928 226.09 51.425 226.066C50.8446 226.009 50.2849 225.786 49.7948 225.416C49.3047 225.046 48.8991 224.54 48.6136 223.943C48.5826 223.89 48.5702 223.824 48.5789 223.76C48.5875 223.696 48.6165 223.639 48.66 223.599C48.7051 223.561 48.7612 223.545 48.8161 223.555C48.8709 223.566 48.9201 223.601 48.953 223.653Z" fill="white"/>
<path d="M133.433 31.1025L49.9242 21.4434C48.9568 21.3253 48.0219 20.9664 47.1816 20.3905C46.3146 19.7973 45.5461 19.0243 44.9133 18.1092C43.553 16.1529 42.8067 13.7056 42.7998 11.1785C42.799 10.563 42.8456 9.94867 42.9389 9.34303C43.0284 8.7629 43.1651 8.19424 43.3471 7.64491C43.5234 7.1134 43.7454 6.60452 44.0099 6.12624C44.27 5.65631 44.5726 5.22083 44.9123 4.82736C45.2427 4.44408 45.609 4.10597 46.0041 3.81949C46.7732 3.26191 47.6426 2.92387 48.5428 2.83243C49.0029 2.78603 49.466 2.79999 49.9235 2.87406L133.433 16.1575C134.07 16.2688 134.674 16.5661 135.188 17.0222C135.752 17.5196 136.234 18.1335 136.611 18.834C137.03 19.6055 137.351 20.4452 137.564 21.3264C137.795 22.2754 137.912 23.2578 137.912 24.2451C137.912 24.7262 137.884 25.2067 137.827 25.683C137.773 26.1369 137.689 26.5853 137.577 27.0243C137.471 27.4423 137.334 27.8489 137.17 28.24C137.013 28.6134 136.826 28.9685 136.611 29.3003C136.411 29.6113 136.183 29.8957 135.93 30.1483C135.695 30.3823 135.437 30.5809 135.161 30.7395C134.624 31.047 134.026 31.1726 133.433 31.1021L133.433 31.1025Z" fill="#E4E4E4"/>
<path d="M96.3157 26.8095L49.9242 21.4434C48.9568 21.3253 48.0219 20.9664 47.1816 20.3905C46.3146 19.7973 45.5461 19.0243 44.9133 18.1092C43.553 16.1529 42.8067 13.7056 42.7998 11.1785C42.799 10.563 42.8456 9.94867 42.9389 9.34303C43.0284 8.7629 43.1651 8.19425 43.3471 7.64492C43.5234 7.11341 43.7454 6.60452 44.0099 6.12624C44.27 5.65631 44.5726 5.22083 44.9123 4.82736C45.2427 4.44408 45.609 4.10597 46.0041 3.81949C46.7732 3.26191 47.6426 2.92387 48.5428 2.83243C49.0029 2.78603 49.466 2.79999 49.9235 2.87406L96.3146 10.2547L96.3157 26.8095Z" fill="#0B5FFF"/>
<path d="M96.1972 28.0291C95.9827 28.0028 95.7765 27.9172 95.5954 27.7794C95.4044 27.6345 95.2381 27.4491 95.1047 27.2327C94.9597 26.9989 94.8473 26.7393 94.772 26.4638C94.6908 26.1705 94.6495 25.8639 94.6495 25.5554V11.0489C94.6479 10.7514 94.6892 10.4558 94.7716 10.1746C94.8443 9.9259 94.9575 9.69615 95.1047 9.49814C95.2388 9.31595 95.4073 9.17335 95.5968 9.08183C95.7878 8.99275 95.9953 8.96405 96.1987 8.99857C96.4135 9.03591 96.6182 9.13077 96.797 9.27583C96.9868 9.43025 97.1515 9.62342 97.2834 9.84617C97.4263 10.0842 97.5371 10.3468 97.6119 10.6247C97.6915 10.9177 97.7322 11.2234 97.7323 11.531V25.9205C97.7338 26.2178 97.6931 26.5133 97.6119 26.7948C97.5399 27.0462 97.4285 27.2794 97.2834 27.4825C97.1507 27.6689 96.9839 27.8176 96.7955 27.9176C96.6076 28.0148 96.4015 28.0532 96.1972 28.0291Z" fill="#3F3D56"/>
<path d="M21.9867 16.1214C21.904 16.1115 21.822 16.0949 21.7413 16.0719C21.6587 16.0482 21.5774 16.0182 21.4981 15.982C21.4166 15.9448 21.3371 15.9015 21.2602 15.8525C21.1806 15.8018 21.1038 15.7453 21.0301 15.6835C20.5845 15.3101 20.2673 14.7615 20.1358 14.1369C20.0922 13.9292 20.0702 13.716 20.0703 13.5021V2.60901C20.0697 2.40132 20.0917 2.19439 20.1358 1.99329C20.1773 1.80344 20.2411 1.62129 20.3252 1.45209C20.4903 1.12155 20.736 0.856879 21.0304 0.692338C21.1784 0.609112 21.336 0.552019 21.4981 0.522903C21.6599 0.494145 21.8244 0.492459 21.9867 0.517904C22.1543 0.544354 22.3182 0.596709 22.4741 0.673605C22.6392 0.755022 22.7952 0.859877 22.9386 0.985834L30.337 7.44897C30.4692 7.56467 30.5903 7.697 30.6981 7.84363C30.9116 8.13393 31.0699 8.47461 31.1622 8.84277C31.2085 9.02738 31.2376 9.21735 31.249 9.40935C31.249 9.42466 31.2498 9.43996 31.2514 9.45515C31.2531 9.47035 31.2531 9.48574 31.2514 9.50094V9.59295C31.252 9.79574 31.2311 9.99781 31.1891 10.1945C31.1495 10.3799 31.0887 10.5582 31.0086 10.7245C30.9307 10.8857 30.8335 11.0329 30.72 11.1616C30.6066 11.2908 30.4775 11.3997 30.337 11.4846L22.9379 15.9145C22.8642 15.9586 22.7879 15.9963 22.7096 16.0274C22.6323 16.058 22.5533 16.0821 22.4731 16.0994C22.3931 16.1166 22.3122 16.127 22.2309 16.1306C22.1494 16.1342 22.0678 16.1312 21.9867 16.1214Z" fill="#CACACA"/>
<path d="M133.45 78.534L49.9499 80.3857C49.0042 80.4063 48.0668 80.1756 47.2076 79.7109C46.3461 79.2418 45.5744 78.572 44.9394 77.7421C44.2722 76.8725 43.7487 75.8644 43.3955 74.7693C42.6364 72.4067 42.6364 69.7996 43.3955 67.4369C43.7487 66.3416 44.2723 65.3332 44.9394 64.4633C45.5744 63.6326 46.346 62.9621 47.2076 62.4921C48.0667 62.0267 49.0041 61.7953 49.9499 61.8151L133.45 63.5898C134.072 63.6084 134.679 63.8242 135.205 64.2143C135.768 64.6321 136.252 65.1808 136.627 65.8266C137.05 66.5486 137.372 67.3457 137.58 68.1875C138.044 70.0625 138.044 72.0543 137.58 73.9292C137.372 74.7714 137.05 75.5689 136.627 76.2913C136.252 76.9388 135.768 77.4892 135.205 77.9087C134.679 78.299 134.072 78.515 133.45 78.534Z" fill="#E4E4E4"/>
<path d="M82.5862 79.6622L49.9498 80.3858C49.0042 80.4064 48.0668 80.1757 47.2076 79.7109C46.346 79.2419 45.5744 78.5721 44.9394 77.7422C44.2722 76.8726 43.7487 75.8645 43.3955 74.7694C43.0167 73.5986 42.8238 72.3561 42.8262 71.1034C42.8259 70.4816 42.8724 69.8609 42.9653 69.2488C43.0561 68.6508 43.1927 68.0638 43.3735 67.4949C43.5514 66.9352 43.7732 66.3962 44.0362 65.885C44.2973 65.3776 44.5994 64.9009 44.9383 64.4617C45.2681 64.0327 45.6339 63.644 46.0301 63.3014C46.411 62.9726 46.8204 62.6921 47.2515 62.4647C48.0992 62.0169 49.0207 61.7951 49.9498 61.8152L82.5862 62.5088V79.6622Z" fill="#0B5FFF"/>
<path d="M82.9677 80.7477C82.7448 80.753 82.5242 80.6944 82.3248 80.577C82.1218 80.456 81.9424 80.2868 81.7981 80.0799C81.6421 79.8572 81.5213 79.6034 81.4416 79.3306C81.3541 79.0342 81.3098 78.7226 81.3106 78.4089V63.3969C81.3098 63.0829 81.354 62.771 81.4416 62.4744C81.5213 62.2015 81.642 61.9477 81.7981 61.725C81.9426 61.5187 82.122 61.35 82.3248 61.2296C82.5242 61.1122 82.7448 61.0536 82.9677 61.0589C83.192 61.0653 83.4117 61.1347 83.6085 61.2612C83.8103 61.3916 83.9878 61.5681 84.1307 61.7804C84.2842 62.0075 84.4031 62.2641 84.4823 62.5389C84.5681 62.8352 84.6117 63.1463 84.6111 63.4593V78.3464C84.6117 78.6595 84.5681 78.9705 84.4823 79.2669C84.4032 79.5418 84.2842 79.7985 84.1307 80.0258C83.9879 80.2384 83.8104 80.4152 83.6085 80.5458C83.4117 80.6722 83.192 80.7414 82.9677 80.7477Z" fill="#3F3D56"/>
<path d="M22.0156 78.9148C21.8507 78.9176 21.6862 78.8934 21.527 78.8428C21.4459 78.8171 21.3664 78.7848 21.2891 78.7462C21.21 78.7066 21.1332 78.6607 21.0594 78.6088C20.9115 78.5056 20.776 78.3796 20.6565 78.2341C20.5383 78.0894 20.4367 77.927 20.3545 77.7512C20.2711 77.5728 20.2074 77.3825 20.1651 77.185C20.1213 76.9809 20.0993 76.7711 20.0996 76.5606V65.6675C20.0993 65.457 20.1213 65.2472 20.1651 65.0431C20.2075 64.8459 20.2711 64.6559 20.3545 64.4777C20.5199 64.1227 20.7635 63.8267 21.0597 63.6205C21.2057 63.517 21.363 63.4376 21.5274 63.3845C21.8475 63.2826 22.1855 63.2882 22.5031 63.4007C22.6665 63.4588 22.8226 63.5424 22.9672 63.6493L30.3663 69.092L30.3928 69.112L30.4194 69.1324L30.4456 69.1532L30.4714 69.1745C30.5902 69.2755 30.6987 69.3923 30.7946 69.5225C30.8905 69.6523 30.9736 69.7943 31.0425 69.9459C31.1119 70.0995 31.1669 70.2616 31.2064 70.4292C31.2471 70.6016 31.272 70.7785 31.2807 70.9571V71.109C31.281 71.3146 31.2601 71.5194 31.2184 71.7189C31.178 71.9119 31.1174 72.0981 31.0379 72.2735C30.9595 72.4462 30.8627 72.6064 30.7497 72.7501C30.6355 72.8945 30.5057 73.0204 30.3634 73.1248L22.9672 78.5771C22.894 78.6312 22.8179 78.6795 22.7392 78.7216C22.6625 78.7627 22.5835 78.7976 22.5027 78.8261C22.4234 78.8541 22.3424 78.8757 22.2606 78.8906C22.1795 78.9053 22.0976 78.9134 22.0156 78.9148Z" fill="#CACACA"/>
<path d="M133.433 125.808L49.9243 139.132C49.0172 139.286 48.0921 139.189 47.2222 138.85C46.3524 138.51 45.5618 137.937 44.9131 137.176C44.2419 136.391 43.7161 135.451 43.3689 134.415C42.9866 133.273 42.7935 132.056 42.8 130.829C42.8068 128.301 43.5531 125.854 44.9135 123.897C45.5463 122.982 46.3147 122.208 47.1817 121.615C48.022 121.038 48.9569 120.679 49.9243 120.56L133.433 110.863C134.037 110.792 134.646 110.924 135.189 111.244C135.749 111.583 136.236 112.069 136.611 112.665C137.037 113.337 137.36 114.092 137.564 114.895C137.799 115.81 137.917 116.762 137.912 117.718C137.913 118.705 137.795 119.688 137.564 120.637C137.351 121.518 137.03 122.358 136.611 123.13C136.234 123.83 135.752 124.444 135.189 124.942C134.674 125.398 134.071 125.696 133.433 125.808Z" fill="#E4E4E4"/>
<path d="M120.302 127.903L49.9243 139.132C49.0172 139.286 48.0921 139.189 47.2222 138.85C46.3524 138.51 45.5618 137.937 44.9131 137.175C44.2418 136.39 43.7161 135.45 43.3689 134.415C42.9868 133.273 42.7937 132.057 42.8 130.83C42.8001 130.202 42.8467 129.575 42.9391 128.957C43.2155 127.098 43.8952 125.355 44.9124 123.896C45.2424 123.422 45.6077 122.984 46.0042 122.587C46.3831 122.207 46.792 121.87 47.2252 121.581C47.6437 121.302 48.085 121.074 48.5426 120.9C48.9912 120.729 49.4541 120.616 49.9233 120.561L120.302 112.388V127.903Z" fill="#0B5FFF"/>
<path d="M21.9863 141.499C21.905 141.511 21.823 141.517 21.741 141.517C21.6597 141.516 21.5785 141.509 21.4981 141.494C21.336 141.465 21.1784 141.408 21.0304 141.325C20.7358 141.16 20.4901 140.895 20.3252 140.563C20.241 140.394 20.1773 140.212 20.1358 140.022C20.0919 139.822 20.0699 139.616 20.0703 139.409V128.514C20.0703 128.301 20.0923 128.088 20.1358 127.881C20.2675 127.256 20.5848 126.707 21.0304 126.334C21.1751 126.212 21.3322 126.111 21.4981 126.035C21.6549 125.963 21.8192 125.916 21.9867 125.896C22.1492 125.876 22.3133 125.883 22.4741 125.917C22.6355 125.952 22.7918 126.014 22.9379 126.102L30.337 130.528L30.3639 130.545L30.3904 130.562L30.4166 130.579L30.4425 130.597C30.5547 130.677 30.6582 130.773 30.7505 130.883C30.8425 130.992 30.9231 131.114 30.9905 131.246C31.0594 131.381 31.1151 131.524 31.1566 131.674C31.1998 131.831 31.2287 131.992 31.2429 132.156C31.2448 132.177 31.2465 132.199 31.2479 132.221C31.2493 132.242 31.2505 132.264 31.2514 132.286C31.2514 132.308 31.2521 132.33 31.2536 132.353C31.255 132.375 31.255 132.397 31.2536 132.42C31.2536 132.628 31.2326 132.836 31.1913 133.038C31.11 133.441 30.951 133.816 30.7264 134.135C30.6115 134.295 30.4807 134.44 30.337 134.564L22.9379 141.03C22.8648 141.094 22.7886 141.153 22.7096 141.206C22.6332 141.258 22.5543 141.303 22.4731 141.343C22.3942 141.382 22.3133 141.415 22.2309 141.441C22.1506 141.467 22.0688 141.486 21.9863 141.499Z" fill="#CACACA"/>
<path d="M119.795 116.758C120.31 116.67 120.835 116.717 121.333 116.894C121.831 117.071 122.291 117.375 122.678 117.783C123.066 118.192 123.373 118.695 123.577 119.258C123.781 119.821 123.878 120.429 123.861 121.041L135.667 126.385L130.318 130.879L119.926 125.115C119.055 125.013 118.245 124.538 117.651 123.78C117.057 123.023 116.72 122.035 116.704 121.005C116.688 119.975 116.993 118.974 117.563 118.191C118.133 117.408 118.927 116.898 119.795 116.758H119.795Z" fill="#FFB6B6"/>
<path d="M164.624 114.134L166.622 118.405C166.139 121.113 164.891 123.55 163.082 125.319C160.024 128.352 144.034 139.648 144.034 139.648L123.848 127.731L127.379 122.213L143.227 128.458L152.168 118.53L164.624 114.134Z" fill="#3F3D56"/>
<path d="M166.458 181.097L164.371 181.559L176.957 260.107L179.045 259.645L166.458 181.097Z" fill="#CACACA"/>
<path d="M145.682 259.645L147.77 260.107L160.356 181.559L158.268 181.097L145.682 259.645Z" fill="#CACACA"/>
<path d="M160.91 184.797C169.611 184.797 176.664 182.095 176.664 178.761C176.664 175.427 169.611 172.725 160.91 172.725C152.21 172.725 145.156 175.427 145.156 178.761C145.156 182.095 152.21 184.797 160.91 184.797Z" fill="#CACACA"/>
<path d="M127.45 255.16L123.11 255.16L121.045 235.474L127.451 235.474L127.45 255.16Z" fill="#FFB6B6"/>
<path d="M128.556 260.107L114.562 260.107V259.899C114.562 258.2 115.136 256.571 116.157 255.369C117.179 254.168 118.564 253.493 120.009 253.493H120.009L128.557 253.494L128.556 260.107Z" fill="#2F2E41"/>
<path d="M148.519 228.374L144.728 230.859L134.772 214.846L140.368 211.179L148.519 228.374Z" fill="#FFB6B6"/>
<path d="M151.535 232.062L139.311 240.074L139.224 239.892C138.521 238.409 138.348 236.657 138.743 235.023C139.137 233.389 140.068 232.006 141.33 231.179L141.33 231.179L148.796 226.285L151.535 232.062Z" fill="#2F2E41"/>
<path d="M173.171 164.003C173.171 164.003 175.275 171.67 162.363 181.366L145.734 200.852L128.455 249.455L118.197 244.047L133.972 194.531L143.197 175.537L143.465 165.231L145.734 157.966L162.196 151.097L173.171 164.003Z" fill="#2F2E41"/>
<path d="M139.408 228.056L122.245 197.628C121.456 196.227 121.108 194.548 121.258 192.878C121.408 191.208 122.048 189.652 123.068 188.477L140.445 168.488L143.392 165.023H149.985L146.894 178.437L136.168 192.734L148.567 218.536L139.408 228.056Z" fill="#2F2E41"/>
<path d="M152.022 122.312L157.193 113.609L169.01 112.491C169.01 112.491 179.169 123.746 177.321 138.566C175.472 153.387 173.702 167.957 173.702 167.957C173.702 167.957 155.293 152.554 145.734 157.966L152.022 122.312Z" fill="#3F3D56"/>
<path d="M148.51 167.717C148.602 167.115 148.805 166.543 149.105 166.043C149.404 165.543 149.794 165.126 150.245 164.822C150.697 164.518 151.2 164.334 151.719 164.283C152.237 164.232 152.759 164.315 153.247 164.527L161.276 153.031L163.221 160.416L155.298 170.201C154.941 171.142 154.303 171.896 153.504 172.32C152.706 172.745 151.803 172.81 150.966 172.504C150.129 172.198 149.417 171.542 148.965 170.66C148.512 169.777 148.35 168.73 148.51 167.717Z" fill="#FFB6B6"/>
<path d="M158.618 166.971L155.082 160.964L165.124 145.22L159.951 132.185L160.327 116.68L164.602 115.751L164.655 115.783C166.733 117.189 168.34 119.39 169.208 122.018C170.274 125.153 172.655 136.922 173.979 143.657C174.239 144.963 174.21 146.324 173.896 147.613C173.582 148.902 172.992 150.075 172.183 151.019L158.618 166.971Z" fill="#3F3D56"/>
<path d="M167.633 105.992C169.934 101.44 168.662 95.5556 164.79 92.8495C160.919 90.1434 155.915 91.6401 153.614 96.1924C151.313 100.745 152.586 106.629 156.457 109.335C160.328 112.041 165.332 110.544 167.633 105.992Z" fill="#FFB6B6"/>
<path d="M165.837 97.649C165.751 99.0414 166.862 104.176 166.862 104.176C167.675 102.566 166.397 107.916 166.397 107.916C179.754 96.9673 169.2 85.9673 165.071 86.9451C165.158 85.5527 161.79 86.1044 161.79 86.1044C160.508 83.7549 157.696 86.8736 157.696 86.8736L158.238 85.8002C156.055 86.4532 153.897 94.3872 153.897 94.3872C154.638 97.81 165.923 96.2566 165.837 97.649Z" fill="#2F2E41"/>
<path d="M119.989 128.944C119.81 128.974 119.627 128.945 119.461 128.861C119.293 128.772 119.145 128.637 119.029 128.468C118.898 128.279 118.798 128.063 118.735 127.83C118.663 127.565 118.627 127.288 118.629 127.009V113.411C118.628 113.123 118.664 112.836 118.735 112.56C118.801 112.304 118.9 112.062 119.029 111.842C119.145 111.641 119.291 111.468 119.462 111.331C119.619 111.204 119.8 111.126 119.989 111.102C120.17 111.081 120.352 111.119 120.515 111.212C120.683 111.309 120.83 111.449 120.944 111.623C121.073 111.817 121.171 112.036 121.233 112.27C121.305 112.535 121.341 112.812 121.339 113.09V126.585C121.339 126.873 121.303 127.159 121.233 127.434C121.168 127.692 121.071 127.937 120.944 128.161C120.829 128.366 120.684 128.545 120.515 128.689C120.36 128.823 120.179 128.91 119.989 128.944Z" fill="#3F3D56"/>
<path d="M229.578 260.5H0.421282C0.309697 260.5 0.202789 260.447 0.124001 260.354C0.0452124 260.262 0.000976562 260.136 0.000976562 260.004C0.000976562 259.873 0.0452124 259.747 0.124001 259.654C0.202789 259.562 0.309697 259.509 0.421282 259.509H229.578C229.69 259.509 229.797 259.561 229.876 259.654C229.955 259.747 230 259.873 230 260.004C230 260.136 229.955 260.262 229.876 260.355C229.797 260.448 229.69 260.5 229.578 260.5Z" fill="#CACACA"/>
</g>
<defs>
<clipPath id="clip0_12727_90243">
<rect width="230" height="260" fill="white" transform="translate(0 0.5)"/>
</clipPath>
</defs>
</svg>
