<?xml version="1.0" encoding="UTF-8"?>
<svg width="168px" height="168px" viewBox="0 0 168 168" version="1.1" xmlns="http://www.w3.org/2000/svg" xmlns:xlink="http://www.w3.org/1999/xlink">
    <title>38355A78-ADB4-4C2C-86ED-7B8378C2998F</title>
    <defs>
        <rect id="path-1" x="0" y="0" width="166" height="166" rx="83"></rect>
    </defs>
    <g id="↳-User-Profile" stroke="none" stroke-width="1" fill="none" fill-rule="evenodd">
        <g id="Edit-Profile---Upload-Photo" transform="translate(-162.000000, -173.000000)">
            <g id="Group-3" transform="translate(163.000000, 174.000000)">
                <mask id="mask-2" fill="white">
                    <use xlink:href="#path-1"></use>
                </mask>
                <rect stroke="#CDCED9" x="-0.5" y="-0.5" width="167" height="167" rx="83"></rect>
                <path d="M148.547278,150.143409 L113.925045,131.936867 L112.326008,126.968854 C111.847307,125.304317 111.089663,123.640104 109.531359,123.202665 C109.036365,123.06398 108.410046,122.165448 108.32923,121.538128 L107.405067,111.877851 C107.354231,111.050605 107.687921,110.308254 108.127192,109.786892 C110.779762,106.626313 112.225641,102.965757 112.837296,98.7805981 C113.144916,96.6763537 114.246026,94.7357439 114.811734,92.6632543 L117.03155,81.111944 C117.263243,79.5951642 117.218273,78.4260675 115.513329,77.8382789 C115.0431,77.6752923 114.633809,76.900539 114.633809,75.7388949 L114.656294,53.9434074 C114.294254,48.668215 111.485267,44.5890138 107.501198,41.7498716 C99.8908634,36.3259499 86.2627138,38.8410631 90.7104939,29.9937749 C90.973144,29.4730603 90.8893958,28.5683713 89.0609472,29.2371672 C82.2385627,31.7331627 64.0665017,38.3284492 59.5014088,41.7498716 C55.4156686,44.8116217 52.7090043,48.668215 52.3463125,53.9434074 L52.3687975,75.7388949 C52.3687975,76.6980208 51.9598324,77.6752923 51.4889523,77.8382789 C49.7836821,78.4257435 49.7390381,79.5951642 49.9707306,81.111944 L52.1911991,92.6632543 C52.7556035,94.7357439 53.8573651,96.6766777 54.1653109,98.7805981 C54.7763145,102.965757 56.223171,106.626313 58.8750894,109.786892 C59.3140344,110.308254 59.6480497,111.050605 59.5972142,111.877851 L58.6730509,121.538128 C58.5919096,122.165448 57.9646126,123.06398 57.4705959,123.202665 C55.9119665,123.640104 55.1539962,125.304317 54.6756211,126.968854 L53.0759323,131.936867 L18.4523962,150.143409 C17.5588646,150.612927 17,151.535762 17,152.540252 L17,165.288525 C17,166.785863 18.2213554,168 19.72752,168 L147.27248,168 C148.778645,168 150,166.785863 150,165.288525 L150,152.540252 C150,151.535762 149.440484,150.612927 148.547278,150.143409 Z" id="Path" fill="#CDCED9" fill-rule="nonzero" mask="url(#mask-2)"></path>
            </g>
        </g>
    </g>
</svg>
