<?xml version="1.0" encoding="UTF-8"?>
<svg width="24px" height="24px" viewBox="0 0 24 24" version="1.1" xmlns="http://www.w3.org/2000/svg" xmlns:xlink="http://www.w3.org/1999/xlink">
    <title>F4743761-F87E-4DDC-B401-B0D0596ADA97</title>
    <g id="↳-Pending-Orders" stroke="none" stroke-width="1" fill="none" fill-rule="evenodd">
        <g id="Create-Picklist-Trip---Blank" transform="translate(-1102.000000, -196.000000)">
            <g id="Group" transform="translate(922.000000, 145.000000)">
                <g id="Group-5" transform="translate(0.000000, 37.000000)">
                    <g id="Group-6" transform="translate(180.000000, 14.000000)">
                        <polygon id="Star" fill="#FF9739" points="12 21.6632254 10.4336857 23.8973383 9.49897322 21.333959 7.40779881 23.0865544 7.16838728 20.3685987 4.69486285 21.5202401 5.16706776 18.8329322 2.47975992 19.3051371 3.63140128 16.8316127 0.91344561 16.5922012 2.66604098 14.5010268 0.102661664 13.5663143 2.33677455 12 0.102661664 10.4336857 2.66604098 9.49897322 0.91344561 7.40779881 3.63140128 7.16838728 2.47975992 4.69486285 5.16706776 5.16706776 4.69486285 2.47975992 7.16838728 3.63140128 7.40779881 0.91344561 9.49897322 2.66604098 10.4336857 0.102661664 12 2.33677455 13.5663143 0.102661664 14.5010268 2.66604098 16.5922012 0.91344561 16.8316127 3.63140128 19.3051371 2.47975992 18.8329322 5.16706776 21.5202401 4.69486285 20.3685987 7.16838728 23.0865544 7.40779881 21.333959 9.49897322 23.8973383 10.4336857 21.6632254 12 23.8973383 13.5663143 21.333959 14.5010268 23.0865544 16.5922012 20.3685987 16.8316127 21.5202401 19.3051371 18.8329322 18.8329322 19.3051371 21.5202401 16.8316127 20.3685987 16.5922012 23.0865544 14.5010268 21.333959 13.5663143 23.8973383"></polygon>
                        <g id="thumbs-up" transform="translate(7.000000, 7.000000)" fill="#FFFFFF" fill-rule="nonzero">
                            <path d="M1.86440678,9.265625 L1.86440678,4.265625 C1.86440678,3.87120536 1.65568061,3.57142857 1.39830508,3.57142857 L0.466101695,3.57142857 C0.208726165,3.57142857 0,3.89129464 0,4.265625 L0,9.24553571 C0,9.63995536 0.208726165,9.93973214 0.466101695,9.93973214 L1.39830508,9.93973214 C1.65611758,9.97991071 1.86440678,9.67857143 1.86440678,9.265625 L1.86440678,9.265625 Z M10,4.28794643 C10,3.69642857 9.54491525,3.21696429 8.98305085,3.21696429 L5.87923729,3.21696429 C6.36165254,2.37075893 6.61059322,1.41160714 6.61059322,1.07366071 C6.61016949,0.547321429 6.21822034,0 5.56144068,0 C4.22394068,0 5.0029661,1.69977679 3.2690678,3.16071429 L2.92372881,3.45089286 C2.67372881,3.66294643 2.54661017,3.97321429 2.54449153,4.28571429 C2.54385593,4.28616071 2.54449153,4.28571429 2.54449153,4.28571429 L2.54237288,7.85714286 C2.54237288,8.19419643 2.69300847,8.51183036 2.94915254,8.7140625 L3.67245763,9.28526786 C4.25847458,9.75 4.97245763,10 5.70550847,10 L6.94915254,10 C7.51101695,10 7.96610169,9.52075893 7.96610169,8.92901786 C7.96610169,8.84776786 7.95572034,8.76941964 7.93961864,8.69352679 C8.34724576,8.55357143 8.64385593,8.15625 8.64385593,7.67857143 C8.64385593,7.47433036 8.58665254,7.28549107 8.49258475,7.12321429 C8.96355932,7.03125 9.32161017,6.59598214 9.32161017,6.07366071 C9.32161017,5.79464286 9.21779661,5.54285714 9.05211864,5.35223214 C9.58008475,5.31473214 9.99957627,4.85491071 9.99957627,4.28794643 L10,4.28794643 Z" id="Shape"></path>
                        </g>
                    </g>
                </g>
            </g>
        </g>
    </g>
</svg>