<svg width="16" height="17" viewBox="0 0 16 17" fill="none" xmlns="http://www.w3.org/2000/svg">
<path d="M14.0921 9.2747C14.164 8.79051 14.0765 8.04705 14.0328 7.70968L15.5482 6.70383C15.9669 6.41332 16.0982 5.85728 15.8576 5.41058L14.7421 3.4426C14.4952 2.9834 13.939 2.79285 13.4609 2.99902L11.8611 3.73311C11.458 3.40824 10.7893 3.049 10.3019 2.85845L10.0925 1.36216C10.0238 0.868606 9.59884 0.5 9.09889 0.5H6.91161C6.40854 0.5 5.98671 0.87173 5.91797 1.36529L5.71486 2.83034C5.1368 3.07087 4.56186 3.42698 4.14315 3.73936L2.58081 2.9834C2.12148 2.80223 1.63091 2.84283 1.38094 3.27079L0.137315 5.1763C-0.109534 5.59488 -0.0157942 6.12905 0.356042 6.44455L1.92775 7.70031C1.87776 8.06579 1.83401 8.79988 1.90901 9.29032L0.42791 10.3087C0.00607857 10.6054 -0.122033 11.174 0.131066 11.6207L1.34656 13.6355C1.60279 14.0822 2.15898 14.2634 2.63081 14.0541L4.14315 13.2513C4.55561 13.5699 5.22116 13.976 5.71174 14.1665L5.88985 15.6097C5.94921 16.1127 6.37417 16.4906 6.88349 16.4938L9.13638 16.5C9.64571 16.5 10.0738 16.122 10.1332 15.6191L10.2988 14.154C10.8831 13.9198 11.4611 13.6105 11.8736 13.2856L13.5203 13.9635C14.0015 14.1884 14.5764 14.001 14.8295 13.5355L15.8794 11.6581C16.1169 11.2177 15.9951 10.671 15.5888 10.3774L14.0921 9.2747ZM8.00838 11.2271C4.76809 11.2271 4.55873 6.22901 8.00838 6.22901C11.4049 6.22901 11.2487 11.2271 8.00838 11.2271Z" fill="#6B6C7E"/>
</svg>
