<?xml version="1.0" encoding="UTF-8"?>
<svg width="18px" height="18px" viewBox="0 0 18 18" version="1.1" xmlns="http://www.w3.org/2000/svg" xmlns:xlink="http://www.w3.org/1999/xlink">
    <title>2529DCC6-55A2-44EE-84D3-3DFFE19AAEDC</title>
    <g id="↳-Collection" stroke="none" stroke-width="1" fill="none" fill-rule="evenodd">
        <g id="Collection---Received" transform="translate(-23.000000, -289.000000)" fill="#FFFFFF" fill-rule="nonzero">
            <g id="nav/state/active-5" transform="translate(0.000000, 272.000000)">
                <g id="icons" transform="translate(22.999877, 16.999999)">
                    <path d="M11.4610443,4.07495653 L13.4086978,1.22097621 L13.4086978,1.22097623 C13.6170359,0.804153778 13.4480252,0.297359577 13.031201,0.0890204203 C12.9147897,0.0308351515 12.7864963,0.000367733852 12.6563551,0 L5.34386547,0 L5.34386548,0 C4.87787708,0 4.50008152,0.377683057 4.50003934,0.843671456 C4.50002741,0.97464377 4.53050581,1.10382066 4.58906116,1.22097483 L6.53917558,4.0753067 C-0.345111506,8.28491009 0.00293487371,13.7829882 0.00293487371,14.4843544 C0.00293487371,16.4260313 1.72945586,17.9999744 3.85921845,17.9999744 L14.1420554,17.9999744 C16.2714664,17.9999744 17.9979874,16.4260313 17.9979874,14.4843544 C17.9979874,13.7956444 18.307362,8.261707 11.4610436,4.07495514 L11.4610443,4.07495653 Z M11.0490136,1.68749899 L9.70534366,3.65624619 L8.29487691,3.65624619 L6.95120695,1.68749899 L11.0490136,1.68749899 Z M16.3104905,14.4843558 C16.3104905,15.492284 15.3377185,16.3124782 14.1420561,16.3124782 L3.85921916,16.3124782 C2.66390836,16.3124782 1.69078474,15.492284 1.69078474,14.4843558 C1.66195666,11.6367036 2.83793155,8.3162005 7.69933088,5.34374379 L10.3037022,5.34374379 C15.1404922,8.3031927 16.3340452,11.6342427 16.3104905,14.4843558 Z M10.0410854,10.924439 L8.31843157,10.4132678 C8.11979904,10.3563148 7.98198673,10.1594401 7.98198673,9.93233101 C7.98198673,9.65600328 8.18483801,9.43276141 8.43339234,9.43276141 L9.5088205,9.43276141 L9.50882048,9.43276141 C9.68187688,9.43378812 9.85131007,9.48244099 9.99854635,9.57338621 L9.99854638,9.57338623 C10.1181017,9.65485404 10.2778733,9.64396054 10.3852646,9.54701904 L10.8331546,9.11916809 L10.8331546,9.11916807 C10.9539165,9.00554148 10.9597011,8.81553171 10.8460744,8.69476946 C10.8349366,8.68293219 10.8228559,8.6720189 10.8099514,8.66213716 L10.8099514,8.66213716 C10.4600076,8.40505851 10.0423298,8.25629751 9.60866405,8.23428621 L9.60866405,7.61553709 L9.60866405,7.61553698 C9.6073108,7.44749737 9.47049807,7.31209854 9.30245355,7.31248969 L8.69003254,7.31248969 L8.69003253,7.31248969 C8.52204601,7.31209946 8.38533445,7.44755398 8.38417359,7.61553698 L8.38417359,8.22866111 C7.47714363,8.25502826 6.75011342,9.00877719 6.75011342,9.93619774 C6.75011342,10.6934623 7.24757365,11.3674066 7.95913513,11.5793985 L9.68178893,12.0905697 C9.88042146,12.1471712 10.0182338,12.3440459 10.0182338,12.5711549 C10.0182338,12.8478342 9.81538249,13.0710761 9.56682816,13.0710761 L8.49104844,13.0710761 L8.49104845,13.0710761 C8.3179685,13.0702129 8.14849206,13.0215477 8.00132258,12.9304513 L8.00132258,12.9304513 C7.88168779,12.8490795 7.72191165,12.8601185 7.61460438,12.95717 L7.16284721,13.3811538 L7.16284717,13.3811538 C7.04208527,13.4947804 7.03630067,13.6847902 7.14992741,13.8055524 C7.16106524,13.8173897 7.17314593,13.828303 7.1860504,13.8381847 L7.18605019,13.8381846 C7.53617078,14.0951806 7.95393542,14.2439293 8.3876891,14.2660355 L8.3876891,14.8830268 L8.38768909,14.8830255 C8.38884911,15.0510085 8.52556011,15.1864636 8.69354663,15.1860742 L9.30596763,15.1860742 L9.30596765,15.1860742 C9.47395417,15.1864644 9.61066573,15.0510099 9.61182659,14.8830269 L9.61182659,14.2734184 C10.5149894,14.2509184 11.2458868,13.4936539 11.2497541,12.5662333 C11.2501134,11.810375 10.7526453,11.1364307 10.0410838,10.9244388 L10.0410854,10.924439 Z" id="Shape"></path>
                </g>
            </g>
        </g>
    </g>
</svg>