<?xml version="1.0" encoding="UTF-8"?>
<svg width="16px" height="16px" viewBox="0 0 16 16" version="1.1" xmlns="http://www.w3.org/2000/svg" xmlns:xlink="http://www.w3.org/1999/xlink">
    <!-- Generator: sketchtool 61.2 (101010) - https://sketch.com -->
    <title>36E4F1EA-71A0-4256-8B07-DAD30158EEB7</title>
    <desc>Created with sketchtool.</desc>
    <g id="Asset-Artboard-Page" stroke="none" stroke-width="1" fill="none" fill-rule="evenodd">
        <g id="icons-nav/icons/dashboard" fill="#FFFFFF" fill-rule="nonzero">
            <path d="M12.9230769,14.1538462 L12.9230769,16 L3.07692308,16 L3.07692308,14.1538462 L12.9230769,14.1538462 Z M8,-1.74971149e-12 C12.4192308,-1.74971149e-12 16,3.58076923 16,8 C16,9.85769231 15.3653846,11.5653846 14.3038462,12.9230769 L14.3038462,12.9230769 L12.0423077,12.9230769 L11.0384615,11.9192308 L11.9192308,11.0384615 L12.7692308,11.8846154 C13.5346154,10.95 14.0038462,9.80769231 14.1230769,8.61538462 L14.1230769,8.61538462 L12.9230769,8.61538462 L12.9230769,7.38461538 L14.1230769,7.38461538 C14.0038462,6.19230769 13.5346154,5.05 12.7692308,4.11538462 L12.7692308,4.11538462 L11.9192308,4.96153846 L11.0384615,4.08076923 L11.8846154,3.23076923 C10.95,2.46538462 9.80769231,1.99615385 8.61538462,1.87692308 L8.61538462,1.87692308 L8.61538462,3.07692308 L7.38461538,3.07692308 L7.38461538,1.87692308 C6.19230769,1.99615385 5.05,2.46538462 4.11538462,3.23076923 L4.11538462,3.23076923 L4.96153846,4.08076923 L4.08076923,4.96153846 L3.23076923,4.11538462 C2.46538462,5.05 1.99615385,6.19230769 1.87692308,7.38461538 L1.87692308,7.38461538 L3.07692308,7.38461538 L3.07692308,8.61538462 L1.87692308,8.61538462 C1.99615385,9.80769231 2.46538462,10.95 3.23076923,11.8846154 L3.23076923,11.8846154 L4.08076923,11.0384615 L4.96153846,11.9192308 L3.95769231,12.9230769 L1.69615385,12.9230769 C0.634615385,11.5653846 -8.8817842e-15,9.85769231 -8.8817842e-15,8 C-8.8817842e-15,3.58076923 3.58076923,-1.74971149e-12 8,-1.74971149e-12 Z M5.09615385,4.94230769 L7.66153846,6.81538462 C7.76923077,6.78461538 7.88461538,6.76923077 8,6.76923077 C8.68076923,6.76923077 9.23076923,7.31923077 9.23076923,8 C9.23076923,8.68076923 8.68076923,9.23076923 8,9.23076923 C7.31923077,9.23076923 6.76923077,8.68076923 6.76923077,8 C6.76923077,7.87307692 6.78846154,7.75384615 6.82307692,7.64230769 L6.82307692,7.64230769 L4.94230769,5.07692308 L5.09615385,4.94230769 Z" id="Combined-Shape"></path>
        </g>
    </g>
</svg>
