<?xml version="1.0" encoding="UTF-8"?>
<svg width="16px" height="16px" viewBox="0 0 16 16" version="1.1" xmlns="http://www.w3.org/2000/svg" xmlns:xlink="http://www.w3.org/1999/xlink">
    <!-- Generator: sketchtool 61.2 (101010) - https://sketch.com -->
    <title>92321D32-EE8B-4A01-A43B-1DC5AC202CE8</title>
    <desc>Created with sketchtool.</desc>
    <g id="Asset-Artboard-Page" stroke="none" stroke-width="1" fill="none" fill-rule="evenodd">
        <g id="icons-nav/icons/inventory" fill="#FFFFFF" fill-rule="nonzero">
            <path d="M14.3129745,4.36047479 C14.3084985,4.33969055 14.3084985,4.31819158 14.3129745,4.29740734 C14.3091463,4.27921184 14.3091463,4.26041883 14.3129745,4.24222333 L14.3129745,4.17127245 L14.2656739,4.05302098 L14.2656739,4.05302098 L14.2656739,4.05302098 L14.2656739,4.05302098 L14.2656739,4.05302098 C14.2464578,4.02075443 14.2225454,3.99152821 14.194723,3.96630324 L14.1237721,3.90323579 L14.1237721,3.90323579 L14.084355,3.90323579 L14.084355,3.90323579 L10.9782831,1.94026148 L10.9782831,1.94026148 L8.04564682,0.12707235 C7.97779778,0.0732520513 7.90015928,0.0330942048 7.81702732,0.00882088484 L7.75395987,0.00882088484 C7.68349639,-0.00294029495 7.61157072,-0.00294029495 7.54110724,0.00882088484 L7.46227293,0.00882088484 C7.37070112,0.0290751638 7.28290209,0.0636626588 7.20211971,0.111305488 L1.31319676,3.7771009 L1.24224588,3.83228491 L1.171295,3.89535236 L1.09246069,3.95053638 L1.05304353,3.99783697 L1.05304353,3.99783697 L1.00574295,4.11608843 L1.00574295,4.18703931 L1.00574295,4.2343399 C0.998085684,4.28661719 0.998085684,4.33973122 1.00574295,4.39200852 L1.00574295,11.2742438 C1.0051979,11.5466175 1.14529115,11.7999776 1.3762642,11.9443354 L7.28883745,15.6022474 L7.28883745,15.6022474 L7.28883745,15.6022474 L7.40708891,15.649548 L7.47015636,15.649548 C7.6035287,15.6918493 7.74672243,15.6918493 7.88009477,15.649548 L7.94316222,15.649548 L8.06141368,15.6022474 L8.06141368,15.6022474 L8.06141368,15.6022474 L13.9266863,11.9995194 C14.1576594,11.8551616 14.2977526,11.6018015 14.2972076,11.3294278 L14.2972076,4.44719253 C14.2972076,4.44719253 14.3129745,4.39200852 14.3129745,4.36047479 Z M7.61994155,1.71952541 L9.02319226,2.58670282 L4.61635434,5.31436994 L3.20522019,4.44719253 L7.61994155,1.71952541 Z M6.83159845,13.5446719 L2.4957114,10.8958391 L2.4957114,5.85832668 L6.83159845,8.53869322 L6.83159845,13.5446719 Z M7.61994155,7.15120936 L6.11420623,6.2446148 L10.5210442,3.50906424 L12.0346629,4.44719253 L7.61994155,7.15120936 Z M12.7441717,10.8721888 L8.40828465,13.5683222 L8.40828465,8.53869322 L12.7441717,5.85832668 L12.7441717,10.8721888 Z" id="inventory"></path>
        </g>
    </g>
</svg>
