<?xml version="1.0" encoding="UTF-8"?>
<svg width="18px" height="18px" viewBox="0 0 18 18" version="1.1" xmlns="http://www.w3.org/2000/svg" xmlns:xlink="http://www.w3.org/1999/xlink">
    <title>C50028E3-78F7-42E7-A0FA-5CA65DD62B74</title>
    <g id="↳-Orders" stroke="none" stroke-width="1" fill="none" fill-rule="evenodd">
        <g id="Order---List" transform="translate(-23.000000, -97.000000)">
            <g id="nav/state/active" transform="translate(0.000000, 80.000000)">
                <g id="icons" transform="translate(23.000000, 17.000000)">
                    <path d="M12.6215792,0 C14.8857103,2.31428505 14.8857103,2.31428505 17.1999954,4.64555071 L17.1999954,4.64555071 L17.1999954,17.0999951 C17.1989682,17.4388974 17.0076471,17.7484897 16.7049955,17.9009948 C16.4001711,18.0556333 16.0340576,18.0242521 15.7599957,17.8199949 L15.7599957,17.8199949 L13.8969963,16.4249953 L12.0429968,17.8199949 C11.7229969,18.0599948 11.282997,18.0599948 10.9629971,17.8199949 L10.9629971,17.8199949 L9.09999767,16.4249953 L7.2369982,17.8199949 C6.9169983,18.0599948 6.47699842,18.0599948 6.15699851,17.8199949 L6.15699851,17.8199949 L4.30299905,16.4249953 L2.43999959,17.8199949 C2.16728378,18.0245317 1.80241316,18.0574321 1.49750762,17.9049793 C1.19260208,17.7525265 1,17.4408898 1,17.0999951 L1,17.0999951 L1,0.899999741 C1,0.402943609 1.40294361,0 1.89999974,0 L1.89999974,0 Z M11.4142827,1.79999948 L2.79999948,1.79999948 L2.79999948,15.2999995 L3.7629992,14.5799958 C4.08299911,14.3399959 4.52299898,14.3399959 4.84299889,14.5799958 L4.84299889,14.5799958 L6.69699836,15.9749954 L8.55999782,14.5799958 C8.87999773,14.3399959 9.3199976,14.3399959 9.63999751,14.5799958 L9.63999751,14.5799958 L11.502997,15.9749954 L13.3569964,14.5799958 C13.6769963,14.3399959 14.1169962,14.3399959 14.4369961,14.5799958 L14.4369961,14.5799958 L15.3999959,15.2999995 L15.3999959,5.78571263 L11.4142827,1.79999948 Z M10.5464258,9.25199735 C11.02573,9.25199735 11.4142827,9.65494096 11.4142827,10.1519971 C11.4142827,10.6490532 11.02573,11.0519968 10.5464258,11.0519968 L10.5464258,11.0519968 L5.33928447,11.0519968 C4.85998035,11.0519968 4.47142758,10.6490532 4.47142758,10.1519971 C4.47142758,9.65494096 4.85998035,9.25199735 5.33928447,9.25199735 L5.33928447,9.25199735 Z M12.5714252,5.78571263 C13.0684814,5.78571263 13.4714276,6.18865624 13.4714276,6.68571237 C13.4714276,7.1827685 13.0684814,7.58571211 12.5714252,7.58571211 L12.5714252,7.58571211 L5.37142732,7.58571211 C4.87437119,7.58571211 4.47142758,7.1827685 4.47142758,6.68571237 C4.47142758,6.18865624 4.87437119,5.78571263 5.37142732,5.78571263 L5.37142732,5.78571263 Z" id="sales" fill="#FFFFFF" fill-rule="nonzero"></path>
                    <g id="Group" transform="translate(4.000000, 5.000000)"></g>
                </g>
            </g>
        </g>
    </g>
</svg>