<?xml version="1.0" encoding="UTF-8"?>
<svg width="16px" height="16px" viewBox="0 0 16 16" version="1.1" xmlns="http://www.w3.org/2000/svg" xmlns:xlink="http://www.w3.org/1999/xlink">
    <!-- Generator: sketchtool 61.2 (101010) - https://sketch.com -->
    <title>E57553EF-C093-4762-8647-0AD6552014C3</title>
    <desc>Created with sketchtool.</desc>
    <g id="Asset-Artboard-Page" stroke="none" stroke-width="1" fill="none" fill-rule="evenodd">
        <g id="icons-nav/icons/report" fill="#FFFFFF" fill-rule="nonzero">
            <path d="M5.03125,11 C5.60079365,11 6.0625,10.5051568 6.0625,9.89473684 C6.06585619,9.85798254 6.06585619,9.82096483 6.0625,9.78421053 L7.980625,7.72842105 L8.13875,7.72842105 L8.296875,7.72842105 L9.40375,8.91473684 C9.40375,8.91473684 9.40375,8.95157895 9.40375,8.97368421 C9.40375,9.5841042 9.86545635,10.0789474 10.435,10.0789474 C11.0045436,10.0789474 11.46625,9.5841042 11.46625,8.97368421 L11.46625,8.91473684 L13.96875,6.21052632 L13.96875,6.21052632 C14.5382936,6.21052632 15,5.71568314 15,5.10526316 C15,4.49484317 14.5382936,4 13.96875,4 C13.3992064,4 12.9375,4.49484317 12.9375,5.10526316 C12.9341438,5.14201746 12.9341438,5.17903517 12.9375,5.21578947 L10.455625,7.87578947 L10.345625,7.87578947 L9.15625,6.57894737 C9.15625,5.96852738 8.69454365,5.47368421 8.125,5.47368421 C7.55545635,5.47368421 7.09375,5.96852738 7.09375,6.57894737 L5.03125,8.78947368 L5.03125,8.78947368 C4.46170635,8.78947368 4,9.28431686 4,9.89473684 C4,10.5051568 4.46170635,11 5.03125,11 Z M14.3,13.6 L2.4,13.6 L2.4,1.7 C2.4,1.31340068 2.08659932,1 1.7,1 C1.31340068,1 1,1.31340068 1,1.7 L1,14.3 C1,14.6865993 1.31340068,15 1.7,15 L14.3,15 C14.6865993,15 15,14.6865993 15,14.3 C15,13.9134007 14.6865993,13.6 14.3,13.6 Z" id="report"></path>
        </g>
    </g>
</svg>
