<?xml version="1.0" encoding="UTF-8"?>
<svg width="16px" height="16px" viewBox="0 0 16 16" version="1.1" xmlns="http://www.w3.org/2000/svg" xmlns:xlink="http://www.w3.org/1999/xlink">
    <!-- Generator: sketchtool 61.2 (101010) - https://sketch.com -->
    <title>9790CBDD-A6C2-4081-98B6-FE8968668273</title>
    <desc>Created with sketchtool.</desc>
    <g id="Asset-Artboard-Page" stroke="none" stroke-width="1" fill="none" fill-rule="evenodd">
        <g id="icons-nav/icons/salesforce" fill="#FFFFFF" fill-rule="nonzero">
            <path d="M8.21818182,8.34181844 C9.00338123,7.66214676 9.4545568,6.67486846 9.45454545,5.6363639 C9.45454545,3.62805572 7.82649,2.00000026 5.81818182,2.00000026 C3.80987364,2.00000026 2.18181818,3.62805572 2.18181818,5.6363639 C2.18180683,6.67486846 2.6329824,7.66214676 3.41818182,8.34181844 C1.33886615,9.28337331 0.00218625462,11.3538052 0,13.6363639 C0,14.0380255 0.325611091,14.3636366 0.727272727,14.3636366 C1.12893436,14.3636366 1.45454545,14.0380255 1.45454545,13.6363639 C1.45454545,11.2263941 3.408212,9.27272753 5.81818182,9.27272753 C8.22815164,9.27272753 10.1818182,11.2263941 10.1818182,13.6363639 C10.1818182,14.0380255 10.5074293,14.3636366 10.9090909,14.3636366 C11.3107525,14.3636366 11.6363636,14.0380255 11.6363636,13.6363639 C11.6341774,11.3538052 10.2974975,9.28337331 8.21818182,8.34181844 L8.21818182,8.34181844 Z M5.81818182,7.81818208 C4.61319691,7.81818208 3.63636364,6.84134881 3.63636364,5.6363639 C3.63636364,4.43137899 4.61319691,3.45454572 5.81818182,3.45454572 C7.02316673,3.45454572 8,4.43137899 8,5.6363639 C8,6.21501806 7.77013053,6.76997205 7.36096025,7.17914233 C6.95178997,7.58831261 6.39683598,7.81818208 5.81818182,7.81818208 Z M12.9018182,8.05090935 C13.8525512,6.98028589 14.0865144,5.4514032 13.4994654,4.14545473 C12.9124165,2.83950626 11.6136449,1.99961731 10.1818182,2.00000013 C9.78015655,2.00000013 9.45454545,2.32561135 9.45454545,2.72727299 C9.45454545,3.12893463 9.78015655,3.45454572 10.1818182,3.45454572 C11.3868031,3.45454572 12.3636364,4.43137899 12.3636364,5.6363639 C12.3615419,6.41375321 11.9459702,7.13130702 11.2727273,7.52000026 C11.0534603,7.64647805 10.9157289,7.87786673 10.9090909,8.13090935 C10.9029055,8.38190936 11.0266235,8.61834818 11.2363636,8.7563639 L11.52,8.94545481 L11.6145455,8.9963639 C13.4044183,9.8452993 14.5392978,11.6554321 14.5236364,13.6363639 C14.5236364,14.0380255 14.8492475,14.3636366 15.2509091,14.3636366 C15.6525707,14.3636366 15.9781818,14.0380255 15.9781818,13.6363639 C15.9902697,11.3671489 14.8261546,9.25357819 12.9018182,8.05090935 L12.9018182,8.05090935 Z" id="salesforce"></path>
        </g>
    </g>
</svg>
