<?xml version="1.0" encoding="UTF-8"?>
<svg width="16px" height="16px" viewBox="0 0 16 16" version="1.1" xmlns="http://www.w3.org/2000/svg" xmlns:xlink="http://www.w3.org/1999/xlink">
    <!-- Generator: sketchtool 61.2 (101010) - https://sketch.com -->
    <title>73BAFDCE-B13A-4E1E-B623-FCCA527A5194</title>
    <desc>Created with sketchtool.</desc>
    <g id="Asset-Artboard-Page" stroke="none" stroke-width="1" fill="none" fill-rule="evenodd">
        <g id="icons-nav/icons/sales">
            <path d="M9.25,7.99555555 C9.66421356,7.99555555 10,8.34377852 10,8.77333333 C10,9.20288813 9.66421356,9.5511111 9.25,9.5511111 L9.25,9.5511111 L4.75,9.5511111 C4.33578644,9.5511111 4,9.20288813 4,8.77333333 C4,8.34377852 4.33578644,7.99555555 4.75,7.99555555 L4.75,7.99555555 Z M11,5 C11.4295548,5 11.7777778,5.34822297 11.7777778,5.77777778 C11.7777778,6.20733258 11.4295548,6.55555555 11,6.55555555 L11,6.55555555 L4.77777778,6.55555555 C4.34822297,6.55555555 4,6.20733258 4,5.77777778 C4,5.34822297 4.34822297,5 4.77777778,5 L4.77777778,5 Z M11.0433429,0 C10.6476449,0 10.2998639,0 10,0 C8.17283951,0 5.43209876,0 1.77777778,0 C1.34822297,0 1,0.348222972 1,0.777777776 L1,14.7777777 C1,15.0723782 1.16644629,15.341694 1.42994498,15.4734433 C1.69344367,15.6051927 2.00876405,15.5767603 2.24444444,15.4 L3.85444444,14.1944444 L5.45666666,15.4 C5.73320987,15.6074074 6.11345678,15.6074074 6.38999999,15.4 L8,14.1944444 L9.60999998,15.4 C9.88654319,15.6074074 10.2667901,15.6074074 10.5433333,15.4 L12.1455555,14.1944444 L13.7555555,15.4 C13.9923992,15.5765186 14.3087936,15.6036382 14.5722222,15.47 C14.833773,15.3382053 14.9991123,15.0706564 15,14.7777777 C15,10.4320987 15,7.1728395 15,5 C15,4.71487926 15,4.38643746 15,4.0146746 C13,2 13,2 11.0433429,0 Z M13.4444444,13.2222222 L12.6122222,12.6 C12.335679,12.3925926 11.9554321,12.3925926 11.6788889,12.6 L10.0766666,13.8055555 L8.46666665,12.6 C8.19012344,12.3925926 7.80987653,12.3925926 7.53333332,12.6 L5.92333332,13.8055555 L4.3211111,12.6 C4.04456789,12.3925926 3.66432098,12.3925926 3.38777777,12.6 L2.55555555,13.2222222 L2.55555555,1.55555555 L10,1.55555555 L13.4444444,5 L13.4444444,13.2222222 Z" id="sales" fill="#FFFFFF" fill-rule="nonzero"></path>
            <g id="Group" transform="translate(4.000000, 5.000000)"></g>
        </g>
    </g>
</svg>
