<?xml version="1.0" encoding="UTF-8"?>
<svg width="18px" height="18px" viewBox="0 0 18 18" version="1.1" xmlns="http://www.w3.org/2000/svg" xmlns:xlink="http://www.w3.org/1999/xlink">
    <title>538FF59E-8B39-4CA3-82FD-668B6EAFE8E8</title>
    <g id="↳-Orders" stroke="none" stroke-width="1" fill="none" fill-rule="evenodd" opacity="0.5">
        <g id="Order---List" transform="translate(-23.000000, -161.000000)" fill="#FFFFFF" fill-rule="nonzero">
            <g id="nav/state/active" transform="translate(0.000000, 144.000000)">
                <g id="icons" transform="translate(23.000000, 17.000000)">
                    <path d="M14.90625,11.8125 L11.53125,11.8125 C10.7542969,11.8125 10.125,11.1832031 10.125,10.40625 C10.125,9.62929687 10.7542969,9 11.53125,9 L14.625,9 C14.625,9 18,5.23828125 18,3.375 C18,1.51171875 16.4882812,0 14.625,0 C12.7617187,0 11.25,1.51171875 11.25,3.375 C11.25,4.42265625 12.3152344,6.07148437 13.2503906,7.3125 L11.53125,7.3125 C9.82617187,7.3125 8.4375,8.70117187 8.4375,10.40625 C8.4375,12.1113281 9.82617187,13.5 11.53125,13.5 L14.90625,13.5 C15.6832031,13.5 16.3125,14.1292969 16.3125,14.90625 C16.3125,15.6832031 15.6832031,16.3125 14.90625,16.3125 L4.74960937,16.3125 C5.68476562,15.0714844 6.75,13.4226562 6.75,12.375 C6.75,10.5117187 5.23828125,9 3.375,9 C1.51171875,9 0,10.5117187 0,12.375 C0,14.2382812 3.375,18 3.375,18 L14.90625,18 C16.6113281,18 18,16.6113281 18,14.90625 C18,13.2011719 16.6113281,11.8125 14.90625,11.8125 Z M12.9375,3.375 C12.9375,2.44335937 13.6933594,1.6875 14.625,1.6875 C15.5566406,1.6875 16.3125,2.44335937 16.3125,3.37148437 C16.2949219,3.84257812 15.58125,5.06601562 14.625,6.33867187 C13.66875,5.06601562 12.9550781,3.84609375 12.9375,3.375 Z M3.375,15.3386719 C2.41875,14.0660156 1.70507812,12.8460937 1.6875,12.375 C1.6875,11.4433594 2.44335937,10.6875 3.375,10.6875 C4.30664062,10.6875 5.0625,11.4433594 5.0625,12.3714844 C5.04492187,12.8425781 4.33125,14.0660156 3.375,15.3386719 L3.375,15.3386719 Z M3.375,11.8125 C3.065625,11.8125 2.8125,12.065625 2.8125,12.375 C2.8125,12.684375 3.065625,12.9375 3.375,12.9375 C3.684375,12.9375 3.9375,12.684375 3.9375,12.375 C3.9375,12.065625 3.684375,11.8125 3.375,11.8125 Z M15.1875,3.375 C15.1875,3.065625 14.934375,2.8125 14.625,2.8125 C14.315625,2.8125 14.0625,3.065625 14.0625,3.375 C14.0625,3.684375 14.315625,3.9375 14.625,3.9375 C14.934375,3.9375 15.1875,3.684375 15.1875,3.375 Z" id="Route"></path>
                </g>
            </g>
        </g>
    </g>
</svg>