<svg width="12" height="12" viewBox="0 0 12 12" fill="none" xmlns="http://www.w3.org/2000/svg">
<path d="M11.2458 5.25009H6.73617V0.752197C6.73617 0.339697 6.39867 0.00219727 5.98617 0.00219727C5.57367 0.00219727 5.23617 0.339697 5.23617 0.752197V5.25009H0.75C0.3375 5.25009 0 5.58759 0 6.00009C0 6.41259 0.3375 6.75009 0.75 6.75009H5.23617V11.248C5.23617 11.6605 5.57367 11.998 5.98617 11.998C6.39867 11.998 6.73617 11.6605 6.73617 11.248V6.75011H11.2458C11.6583 6.75011 11.9958 6.41261 11.9958 6.00011C11.9958 5.58761 11.6583 5.25009 11.2458 5.25009Z" fill="#6B6C7E"/>
</svg>
