<svg width="10" height="10" viewBox="0 0 10 10" fill="none" xmlns="http://www.w3.org/2000/svg">
<path d="M5.53348 8.56608L2.22098 5.19369C2.11607 5.08659 2.11607 4.91341 2.22098 4.80632L5.53348 1.43392C5.63839 1.32682 5.80804 1.32682 5.91295 1.43392L6.35045 1.88053C6.45759 1.98991 6.45536 2.16536 6.34598 2.27018L4.17857 4.40755H9.73214C9.87946 4.40755 10 4.5306 10 4.68099V5.31901C10 5.4694 9.87946 5.59245 9.73214 5.59245H4.17857L6.34598 7.72754C6.45312 7.83464 6.45536 8.01009 6.35045 8.11719L5.91295 8.5638C5.80804 8.67318 5.63839 8.67318 5.53348 8.56608V8.56608ZM1.16071 9.10156V0.898438C1.16071 0.748047 1.04018 0.625 0.892857 0.625H0.267857C0.120536 0.625 0 0.748047 0 0.898438V9.10156C0 9.25195 0.120536 9.375 0.267857 9.375H0.892857C1.04018 9.375 1.16071 9.25195 1.16071 9.10156Z" fill="#6B6C7E"/>
</svg>
