<svg width="14" height="14" viewBox="0 0 14 14" fill="none" xmlns="http://www.w3.org/2000/svg">
<path fill-rule="evenodd" clip-rule="evenodd" d="M6.63862 0.22802L0.23319 6.47461C0.0838096 6.62035 0.00620187 6.80932 0 7C0.00617368 7.19068 0.0837814 7.37968 0.23319 7.52539L6.63862 13.772C6.94947 14.076 7.45445 14.076 7.7662 13.772C8.07793 13.4689 8.07793 12.9764 7.7662 12.6724L2.79072 7.82025L13.2027 7.82266C13.6375 7.81783 13.9945 7.46076 14 7.02534C14.0061 6.59057 13.6578 6.24232 13.2224 6.24779C13.2224 6.24779 5.49691 6.18177 2.75572 6.21388L7.7662 1.32764C8.07793 1.02364 8.07793 0.531138 7.7662 0.22802C7.45445 -0.0760065 6.94945 -0.0760065 6.63862 0.22802Z" fill="#6B6C7E"/>
</svg>
