<?xml version="1.0" encoding="UTF-8"?>
<svg width="58px" height="54px" viewBox="0 0 58 54" version="1.1" xmlns="http://www.w3.org/2000/svg" xmlns:xlink="http://www.w3.org/1999/xlink">
    <!-- Generator: sketchtool 62 (101010) - https://sketch.com -->
    <title>4D1F2A46-5FC5-4A99-9580-EA387B56C828</title>
    <desc>Created with sketchtool.</desc>
    <g id="File-Upload" stroke="none" stroke-width="1" fill="none" fill-rule="evenodd">
        <g id="File-Upload-Dialog" transform="translate(-611.000000, -365.000000)">
            <g id="Group" transform="translate(350.000000, 233.000000)">
                <g id="Modal/Desktop/Default">
                    <g id="Group-10" transform="translate(216.500000, 127.681818)">
                        <g id="files-icon" transform="translate(44.000000, 0.000000)">
                            <g id="pdf" transform="translate(29.500000, 29.500000) rotate(-45.000000) translate(-29.500000, -29.500000) translate(12.000000, 6.000000)">
                                <path d="M34.5,10.89225 L34.5,46.1607143 C34.1588781,46.4279087 33.9926455,46.5 33.809186,46.5 L1.19081395,46.5 C1.00735446,46.5 0.84112191,46.4279087 0.711709168,46.3366986 L0.5,1.61646429 C0.5,1.24001968 0.574697128,0.9431028 0.723291636,0.741393949 C0.840066777,0.582878133 1.0055721,0.5 1.19081395,0.5 L24.8133721,0.5 L34.4308295,10.3286282 C34.5134507,10.4143402 34.5,10.5612289 34.5,10.89225 Z" id="Path" stroke="#E7E7ED" fill="#FFFFFF"></path>
                                <polygon id="Path" fill="#CDCED9" points="25 2.13162821e-14 25 10 35 10"></polygon>
                                <path d="M9.71472099,34.0230953 L9.71472099,34.0230953 C9.42999372,34.0230953 9.15672099,33.9288869 8.92353918,33.7513082 C8.0718119,33.1001863 7.95726645,32.3756984 8.01126645,31.8821463 C8.16017554,30.524878 9.80717554,29.1042483 12.9080846,27.6569401 C14.1386301,24.9090554 15.3094483,21.523388 16.0073574,18.6946341 C15.1908119,16.8838315 14.3971755,14.5344568 14.9756301,13.1563459 C15.1785392,12.6736319 15.4313574,12.3034678 15.9034483,12.1433969 C16.0899937,12.0800355 16.5612664,12 16.734721,12 C17.1470846,12 17.5095392,12.5410732 17.7664483,12.8745543 C18.0078119,13.1880266 18.5551755,13.8524878 17.4612664,18.5454013 C18.5641755,20.8664302 20.1269028,23.2308115 21.6241755,24.8498625 C22.6968119,24.6522749 23.619721,24.5513969 24.3716301,24.5513969 C25.6529028,24.5513969 26.4293574,24.8556984 26.7459937,25.482643 C27.0078119,26.0012062 26.9006301,26.6073082 26.4269028,27.2834412 C25.9711755,27.9328958 25.3428119,28.2763814 24.6105392,28.2763814 C23.6156301,28.2763814 22.4570846,27.6360976 21.1651755,26.3713703 C18.8439937,26.8657561 16.1333574,27.7478137 13.9422664,28.7240798 C13.2582664,30.2030687 12.6029028,31.3944302 11.9925392,32.2681508 C11.1539028,33.4645144 10.4306301,34.0230953 9.71472099,34.0230953 Z M11.892721,29.7495344 C10.1442664,30.7508115 9.43163009,31.5736763 9.38008463,32.0372151 C9.37190281,32.1139157 9.3498119,32.3156718 9.73272099,32.6141375 C9.85463009,32.5749534 10.5664483,32.2439734 11.892721,29.7495344 Z M23.0502664,26.0462262 C23.7170846,26.5689579 23.8799028,26.8332417 24.3159937,26.8332417 C24.5074483,26.8332417 25.0531755,26.8249047 25.3059937,26.4655787 C25.4279028,26.2913348 25.4753574,26.1796186 25.4941755,26.119592 C25.3935392,26.0654013 25.2601755,25.9553525 24.5328119,25.9553525 C24.1196301,25.9561863 23.6000846,25.9745277 23.0502664,26.0462262 Z M16.9384483,20.5587938 C16.3534483,22.6213747 15.5810846,24.8481951 14.7506301,26.8649224 C16.4606301,26.1887894 18.3195392,25.5985277 20.0655392,25.1808426 C18.9609937,23.8735965 17.8572664,22.2412062 16.9384483,20.5587938 Z M16.4418119,13.504 C16.3616301,13.5315122 15.3536301,14.968816 16.5203574,16.1851885 C17.2968119,14.4219069 16.4769937,13.4923282 16.4418119,13.504 Z" id="Shape" fill="#CDCED9"></path>
                            </g>
                            <g id="doc" transform="translate(30.000000, 29.500000) rotate(-20.000000) translate(-30.000000, -29.500000) translate(12.000000, 6.000000)">
                                <path d="M34.6818182,10.819796 L34.6818182,45.8536585 C34.3390842,46.1154693 34.1705985,46.1873614 33.9848182,46.1873614 L1.197,46.1873614 C1.0112197,46.1873614 0.842734022,46.1154693 0.711628575,46.0241552 L0.5,1.60571175 C0.5,1.23370785 0.57463351,0.940100394 0.723269497,0.740713133 C0.841595285,0.581985391 1.00962558,0.5 1.197,0.5 L24.9422727,0.5 L34.6136233,10.2643583 C34.6960158,10.3488258 34.6818182,10.4945699 34.6818182,10.819796 Z" id="Path" stroke="#E7E7ED" fill="#FFFFFF"></path>
                                <polygon id="Path" fill="#CDCED9" points="25 2.34257058e-14 25 10 35 10"></polygon>
                                <g id="Group" transform="translate(4.000000, 14.000000)" fill="#CDCED9">
                                    <path d="M1.39909091,16.9158315 C1.54636364,17.074235 1.63636364,17.2826608 1.63636364,17.5077605 C1.63636364,17.7245233 1.54636364,17.941286 1.39909091,18.0996896 C1.24363636,18.2497561 1.03090909,18.3414634 0.818181818,18.3414634 C0.605454545,18.3414634 0.392727273,18.2497561 0.237272727,18.0996896 C0.09,17.941286 1.33226763e-15,17.7245233 1.33226763e-15,17.5077605 C1.33226763e-15,17.2909978 0.09,17.074235 0.237272727,16.9158315 C0.54,16.6073614 1.09636364,16.6073614 1.39909091,16.9158315 Z M10.6363636,16.6740576 C11.088,16.6740576 11.4545455,17.0475565 11.4545455,17.5077605 C11.4545455,17.9679645 11.088,18.3414634 10.6363636,18.3414634 L4.09090909,18.3414634 C3.63927273,18.3414634 3.27272727,17.9679645 3.27272727,17.5077605 C3.27272727,17.0475565 3.63927273,16.6740576 4.09090909,16.6740576 L10.6363636,16.6740576 Z M4.09090909,12.5055432 C4.54254545,12.5055432 4.90909091,12.8790421 4.90909091,13.3392461 C4.90909091,13.7994501 4.54254545,14.172949 4.09090909,14.172949 L0.818181818,14.172949 C0.366545455,14.172949 0,13.7994501 0,13.3392461 C0,12.8790421 0.366545455,12.5055432 0.818181818,12.5055432 L4.09090909,12.5055432 Z M15.5454545,12.5055432 C15.9970909,12.5055432 16.3636364,12.8790421 16.3636364,13.3392461 C16.3636364,13.7994501 15.9970909,14.172949 15.5454545,14.172949 L7.36363636,14.172949 C6.912,14.172949 6.54545455,13.7994501 6.54545455,13.3392461 C6.54545455,12.8790421 6.912,12.5055432 7.36363636,12.5055432 L15.5454545,12.5055432 Z M26.1818182,12.5055432 C26.6334545,12.5055432 27,12.8790421 27,13.3392461 C27,13.7994501 26.6334545,14.172949 26.1818182,14.172949 L18.8181818,14.172949 C18.3665455,14.172949 18,13.7994501 18,13.3392461 C18,12.8790421 18.3665455,12.5055432 18.8181818,12.5055432 L26.1818182,12.5055432 Z M18.8181818,8.33702882 C19.2698182,8.33702882 19.6363636,8.71052772 19.6363636,9.17073171 C19.6363636,9.6309357 19.2698182,10.0044346 18.8181818,10.0044346 L0.818181818,10.0044346 C0.366545455,10.0044346 0,9.6309357 0,9.17073171 C0,8.71052772 0.366545455,8.33702882 0.818181818,8.33702882 L18.8181818,8.33702882 Z M26.1818182,8.33702882 C26.6334545,8.33702882 27,8.71052772 27,9.17073171 C27,9.6309357 26.6334545,10.0044346 26.1818182,10.0044346 L21.2727273,10.0044346 C20.8210909,10.0044346 20.4545455,9.6309357 20.4545455,9.17073171 C20.4545455,8.71052772 20.8210909,8.33702882 21.2727273,8.33702882 L26.1818182,8.33702882 Z M8.18181818,4.16851441 C8.63345455,4.16851441 9,4.5420133 9,5.00221729 C9,5.46242129 8.63345455,5.83592018 8.18181818,5.83592018 L0.818181818,5.83592018 C0.366545455,5.83592018 0,5.46242129 0,5.00221729 C0,4.5420133 0.366545455,4.16851441 0.818181818,4.16851441 L8.18181818,4.16851441 Z M12.0354545,4.41028825 C12.1827273,4.5686918 12.2727273,4.78545455 12.2727273,5.00221729 C12.2727273,5.21898004 12.1827273,5.43574279 12.0354545,5.59414634 C11.88,5.74421286 11.6672727,5.83592018 11.4545455,5.83592018 C11.2418182,5.83592018 11.0290909,5.74421286 10.8736364,5.59414634 C10.7263636,5.43574279 10.6363636,5.21898004 10.6363636,5.00221729 C10.6363636,4.78545455 10.7263636,4.5686918 10.8736364,4.41028825 C11.1763636,4.10181818 11.7327273,4.10181818 12.0354545,4.41028825 Z M21.2727273,4.16851441 C21.7243636,4.16851441 22.0909091,4.5420133 22.0909091,5.00221729 C22.0909091,5.46242129 21.7243636,5.83592018 21.2727273,5.83592018 L14.7272727,5.83592018 C14.2756364,5.83592018 13.9090909,5.46242129 13.9090909,5.00221729 C13.9090909,4.5420133 14.2756364,4.16851441 14.7272727,4.16851441 L21.2727273,4.16851441 Z M26.1818182,4.16851441 C26.6334545,4.16851441 27,4.5420133 27,5.00221729 C27,5.46242129 26.6334545,5.83592018 26.1818182,5.83592018 L24.5454545,5.83592018 C24.0938182,5.83592018 23.7272727,5.46242129 23.7272727,5.00221729 C23.7272727,4.5420133 24.0938182,4.16851441 24.5454545,4.16851441 L26.1818182,4.16851441 Z M5.72727273,-1.42108547e-14 C6.17890909,-1.42108547e-14 6.54545455,0.373498891 6.54545455,0.833702882 C6.54545455,1.29390687 6.17890909,1.66740576 5.72727273,1.66740576 L0.818181818,1.66740576 C0.366545455,1.66740576 0,1.29390687 0,0.833702882 C0,0.373498891 0.366545455,-1.42108547e-14 0.818181818,-1.42108547e-14 L5.72727273,-1.42108547e-14 Z" id="Combined-Shape"></path>
                                </g>
                            </g>
                            <g id="xls" transform="translate(12.000000, 5.000000)">
                                <path d="M34.6818182,10.819796 L34.6818182,45.8536585 C34.3390842,46.1154693 34.1705985,46.1873614 33.9848182,46.1873614 L1.197,46.1873614 C1.0112197,46.1873614 0.842734022,46.1154693 0.711628575,46.0241552 L0.5,1.60571175 C0.5,1.23370785 0.57463351,0.940100394 0.723269497,0.740713133 C0.841595285,0.581985391 1.00962558,0.5 1.197,0.5 L24.9422727,0.5 L34.6136233,10.2643583 C34.6960158,10.3488258 34.6818182,10.4945699 34.6818182,10.819796 Z" id="Path" stroke="#E7E7ED" fill="#FFFFFF"></path>
                                <polygon id="Path" fill="#CDCED9" points="25 2.3481217e-14 25 10 35 10"></polygon>
                                <path d="M14.8181818,17.3348115 L14.8181818,14 L5,14 L5,17.3348115 L5,19.0022173 L5,20.6696231 L5,22.3370288 L5,24.0044346 L5,25.6718404 L5,27.3392461 L5,29.0066519 L5,32.3414634 L13.1818182,32.3414634 L14.8181818,32.3414634 L32,32.3414634 L32,29.0066519 L32,27.3392461 L32,25.6718404 L32,24.0044346 L32,22.3370288 L32,20.6696231 L32,17.3348115 L14.8181818,17.3348115 Z M6.63636364,15.6674058 L13.1818182,15.6674058 L13.1818182,17.3348115 L6.63636364,17.3348115 L6.63636364,15.6674058 Z M6.63636364,19.0022173 L13.1818182,19.0022173 L13.1818182,20.6696231 L6.63636364,20.6696231 L6.63636364,19.0022173 Z M6.63636364,22.3370288 L13.1818182,22.3370288 L13.1818182,24.0044346 L6.63636364,24.0044346 L6.63636364,22.3370288 Z M6.63636364,25.6718404 L13.1818182,25.6718404 L13.1818182,27.3392461 L6.63636364,27.3392461 L6.63636364,25.6718404 Z M13.1818182,30.6740576 L6.63636364,30.6740576 L6.63636364,29.0066519 L13.1818182,29.0066519 L13.1818182,30.6740576 Z M30.3636364,30.6740576 L14.8181818,30.6740576 L14.8181818,29.0066519 L30.3636364,29.0066519 L30.3636364,30.6740576 Z M30.3636364,27.3392461 L14.8181818,27.3392461 L14.8181818,25.6718404 L30.3636364,25.6718404 L30.3636364,27.3392461 Z M30.3636364,24.0044346 L14.8181818,24.0044346 L14.8181818,22.3370288 L30.3636364,22.3370288 L30.3636364,24.0044346 Z M14.8181818,20.6696231 L14.8181818,19.0022173 L30.3636364,19.0022173 L30.3636364,20.6696231 L14.8181818,20.6696231 Z" id="Shape" fill="#CDCED9"></path>
                            </g>
                        </g>
                    </g>
                </g>
            </g>
        </g>
    </g>
</svg>
