<?xml version="1.0" encoding="UTF-8"?>
<svg width="12px" height="12px" viewBox="0 0 12 12" version="1.1" xmlns="http://www.w3.org/2000/svg" xmlns:xlink="http://www.w3.org/1999/xlink">
    <!-- Generator: Sketch 52 (66869) - http://www.bohemiancoding.com/sketch -->
    <title>times</title>
    <desc>Created with Sketch.</desc>
    <defs>
        <path d="M6.94212438,6.00041461 L11.8038421,1.13869694 C12.0644067,0.87813228 12.0644067,0.456035538 11.8038421,0.196205331 C11.5432774,-0.0643593287 11.121157,-0.0643593287 10.8613504,0.196205331 L5.99963277,5.057923 L1.1379151,0.195423495 C0.878108588,-0.0651411649 0.455253702,-0.0651411649 0.195423495,0.195423495 C-0.0651411649,0.455988154 -0.0651411649,0.878084896 0.195423495,1.1379151 L5.05714116,6.00041461 L0.195423495,10.8621323 C-0.0651411649,11.1226969 -0.0651411649,11.5448174 0.195423495,11.8046239 C0.32494768,11.9356644 0.495624877,12.0004383 0.666278381,12.0004383 C0.836931885,12.0004383 1.00760908,11.9356644 1.1379151,11.805382 L5.99963277,6.94288253 L10.8613504,11.8046002 C10.9916565,11.9349062 11.16231,11.9996565 11.3329635,11.9996565 C11.503617,11.9996565 11.6742942,11.9348825 11.8045765,11.8046002 C12.0651412,11.5440355 12.0651412,11.1219151 11.8045765,10.8621086 L6.942077,6.00039092 L6.94212438,6.00041461 Z" id="path-1"></path>
    </defs>
    <g id="Page-1" stroke="none" stroke-width="1" fill="none" fill-rule="evenodd">
        <g id="Icons/times" transform="translate(-2.000000, -2.000000)">
            <g id="times" transform="translate(2.000000, 2.000000)">
                <mask id="mask-2" fill="white">
                    <use xlink:href="#path-1"></use>
                </mask>
                <use id="Shape" fill="#000000" fill-rule="nonzero" xlink:href="#path-1"></use>
                <g id="0/Color-Lexicon/Main-Secondary-Light28%Des5%" mask="url(#mask-2)" fill="#6B6C7E">
                    <g transform="translate(-2.000000, -2.000000)" id="Mask">
                        <rect x="0" y="0" width="16" height="16"></rect>
                    </g>
                </g>
            </g>
        </g>
    </g>
</svg>