<?xml version="1.0" encoding="UTF-8"?>
<svg width="16px" height="13px" viewBox="0 0 16 13" version="1.1" xmlns="http://www.w3.org/2000/svg" xmlns:xlink="http://www.w3.org/1999/xlink">
    <title>33DFD5D4-EC04-48D4-8B16-EDFC92835B0A</title>
    <defs>
        <path d="M15.5561236,0.444442908 C15.5016791,0.444442908 15.4455679,0.454720719 15.3905679,0.476665181 L10.666953,2.22222213 L10.6666752,2.22222213 L5.8888936,0.535554117 L5.88889352,0.535554092 C5.70757143,0.475284044 5.517746,0.444442908 5.32667085,0.444442908 C5.14083737,0.444442908 4.95528167,0.473609598 4.77639263,0.5316652 L0.55888926,1.99861082 L0.558889278,1.99861081 C0.221408452,2.1335937 -5.80294e-08,2.46041396 -5.80294e-08,2.82388925 L-5.80294e-08,12.4438969 C-5.80294e-08,12.6991749 0.209166776,12.888898 0.444166964,12.888898 C0.498611452,12.888898 0.55444483,12.8786195 0.609722652,12.8566751 L5.33333754,11.1111181 L10.1111191,12.7975083 L10.1111191,12.7975083 C10.47195,12.9179198 10.8618975,12.9193804 11.22362,12.8016751 L15.4411234,11.3347294 L15.4411233,11.3347295 C15.7786542,11.1998094 16.0000127,10.8729486 16.0000127,10.509451 L16.0000127,0.889443344 C16.0000127,0.634165362 15.7908458,0.444442908 15.5561234,0.444442908 L15.5561236,0.444442908 Z M6.2222272,2.06722201 L9.7777856,3.32250079 L9.7777856,11.2661183 L6.2222272,10.0108395 L6.2222272,2.06722201 Z M1.3333344,11.1680626 L1.3333344,3.14083398 L4.8888928,1.90388855 L4.8888928,9.85389491 L4.87111501,9.8602838 L1.3333344,11.1680626 Z M14.6666784,10.1922285 L11.11112,11.4291739 L11.11112,3.47944536 L11.1288978,3.47277869 L14.6666784,2.16527764 L14.6666784,10.1922285 L14.6666784,10.1922285 Z" id="path-1"></path>
    </defs>
    <g id="↳-Route" stroke="none" stroke-width="1" fill="none" fill-rule="evenodd">
        <g id="Route---List-View" transform="translate(-937.000000, -73.000000)">
            <g id="Button/Secondary-Icon/Small/Default-Copy" transform="translate(929.000000, 64.000000)">
                <g id="Icon" transform="translate(8.000000, 9.000000)">
                    <mask id="mask-2" fill="white">
                        <use xlink:href="#path-1"></use>
                    </mask>
                    <use id="Shape" fill="#000000" fill-rule="nonzero" xlink:href="#path-1"></use>
                    <g id="0/Color-Lexicon/Main-Secondary-Light28%Des5%" mask="url(#mask-2)" fill="#6B6C7E">
                        <g transform="translate(0.000000, -1.000000)" id="Mask">
                            <rect x="0" y="0" width="16" height="16"></rect>
                        </g>
                    </g>
                </g>
            </g>
        </g>
    </g>
</svg>