<?xml version="1.0" encoding="UTF-8"?>
<svg width="16px" height="16px" viewBox="0 0 16 16" version="1.1" xmlns="http://www.w3.org/2000/svg" xmlns:xlink="http://www.w3.org/1999/xlink">
    <!-- Generator: sketchtool 64 (101010) - https://sketch.com -->
    <title>281F2E5A-0E78-4A91-8529-0EE0832086F6</title>
    <desc>Created with sketchtool.</desc>
    <defs>
        <path d="M11,6 L11,2 L2,2 L2,6 L11,6 Z M8.5,14 C9.21428929,14 9.80952143,13.7637819 10.2857143,13.2913386 C10.7619071,12.8188953 11,12.2217884 11,11.5 C11,10.7782116 10.7619071,10.1811047 10.2857143,9.70866142 C9.80952143,9.23621811 9.21428929,9 8.5,9 C7.78571071,9 7.19047857,9.23621811 6.71428571,9.70866142 C6.23809286,10.1811047 6,10.7782116 6,11.5 C6,12.2217884 6.23809286,12.8188953 6.71428571,13.2913386 C7.19047857,13.7637819 7.78571071,14 8.5,14 Z M12.4583333,0 L16,3.54166667 L16,14.2083333 C16,14.7083358 15.8263906,15.1319427 15.4791667,15.4791667 C15.1319427,15.8263906 14.7083358,16 14.2083333,16 L1.79166667,16 C1.29166417,16 0.868057292,15.8263906 0.520833333,15.4791667 C0.173609375,15.1319427 0,14.7083358 0,14.2083333 L0,1.79166667 C0,1.29166417 0.166665,0.868057292 0.5,0.520833333 C0.833335,0.173609375 1.26388625,0 1.79166667,0 L12.4583333,0 Z" id="path-1"></path>
    </defs>
    <g id="↳-Sub-D-Replenishment-Report" stroke="none" stroke-width="1" fill="none" fill-rule="evenodd">
        <g id="Sub-D-Replenishment-Report---Report-Generated" transform="translate(-1160.000000, -154.000000)">
            <g id="Button/Secondary-Icon/Small/Active-Copy" transform="translate(1152.000000, 146.000000)">
                <g id="Icon" transform="translate(8.000000, 8.000000)">
                    <g id="summation">
                        <mask id="mask-2" fill="white">
                            <use xlink:href="#path-1"></use>
                        </mask>
                        <use id="content-save---Material-Design-Icons" fill="#000000" xlink:href="#path-1"></use>
                        <g id="ColorMask" mask="url(#mask-2)" fill="#6B6C7E">
                            <g id="0/Color-Lexicon/Main-Secondary-Light28%Des5%">
                                <rect id="Mask" x="0" y="0" width="16" height="16"></rect>
                            </g>
                        </g>
                    </g>
                </g>
            </g>
        </g>
    </g>
</svg>