<svg width="28" height="32" viewBox="0 0 28 32" fill="#FFFFFF" xmlns="http://www.w3.org/2000/svg">
<path d="M27.6845 20.1851L24.7692 17.1981V13.2412C24.7659 10.5067 23.7731 7.87061 21.9828 5.84265C20.1926 3.81469 17.732 2.53892 15.0769 2.26203V0H12.9231V2.26203C10.268 2.53892 7.80743 3.81469 6.01717 5.84265C4.2269 7.87061 3.23411 10.5067 3.23077 13.2412V17.1981L0.315538 20.1851C0.113562 20.392 6.09941e-05 20.6726 0 20.9652V24.2755C0 24.5681 0.113461 24.8488 0.315423 25.0557C0.517386 25.2627 0.791305 25.3789 1.07692 25.3789H8.61539V26.2363C8.59196 27.6361 9.07351 28.9956 9.96777 30.0542C10.862 31.1128 12.1061 31.7961 13.4615 31.973C14.2102 32.0491 14.9661 31.9638 15.6806 31.7226C16.3952 31.4813 17.0525 31.0895 17.6104 30.5724C18.1683 30.0552 18.6144 29.4241 18.9199 28.7197C19.2255 28.0153 19.3838 27.2532 19.3846 26.4824V25.3789H26.9231C27.2087 25.3789 27.4826 25.2627 27.6846 25.0557C27.8865 24.8488 28 24.5681 28 24.2755V20.9652C27.9999 20.6726 27.8864 20.392 27.6845 20.1851ZM17.2308 26.4824C17.2308 27.3603 16.8904 28.2023 16.2845 28.8231C15.6786 29.4439 14.8569 29.7927 14 29.7927C13.1431 29.7927 12.3214 29.4439 11.7155 28.8231C11.1096 28.2023 10.7692 27.3603 10.7692 26.4824V25.3789H17.2308V26.4824ZM25.8462 23.1721H2.15385V21.422L5.06908 18.435C5.27105 18.2281 5.38455 17.9475 5.38462 17.6549V13.2412C5.38462 10.9 6.2923 8.6547 7.908 6.99923C9.5237 5.34376 11.7151 4.41373 14 4.41373C16.2849 4.41373 18.4763 5.34376 20.092 6.99923C21.7077 8.6547 22.6154 10.9 22.6154 13.2412V17.6549C22.6154 17.9475 22.7289 18.2281 22.9309 18.435L25.8462 21.422V23.1721Z" fill="#FFFFFF"/>
<path d="M27.6845 20.1851L24.7692 17.1981V13.2412C24.7659 10.5067 23.7731 7.87061 21.9828 5.84265C20.1926 3.81469 17.732 2.53892 15.0769 2.26203V0H12.9231V2.26203C10.268 2.53892 7.80743 3.81469 6.01717 5.84265C4.2269 7.87061 3.23411 10.5067 3.23077 13.2412V17.1981L0.315538 20.1851C0.113562 20.392 6.09941e-05 20.6726 0 20.9652V24.2755C0 24.5681 0.113461 24.8488 0.315423 25.0557C0.517386 25.2627 0.791305 25.3789 1.07692 25.3789H8.61539V26.2363C8.59196 27.6361 9.07351 28.9956 9.96777 30.0542C10.862 31.1128 12.1061 31.7961 13.4615 31.973C14.2102 32.0491 14.9661 31.9638 15.6806 31.7226C16.3952 31.4813 17.0525 31.0895 17.6104 30.5724C18.1683 30.0552 18.6144 29.4241 18.9199 28.7197C19.2255 28.0153 19.3838 27.2532 19.3846 26.4824V25.3789H26.9231C27.2087 25.3789 27.4826 25.2627 27.6846 25.0557C27.8865 24.8488 28 24.5681 28 24.2755V20.9652C27.9999 20.6726 27.8864 20.392 27.6845 20.1851ZM17.2308 26.4824C17.2308 27.3603 16.8904 28.2023 16.2845 28.8231C15.6786 29.4439 14.8569 29.7927 14 29.7927C13.1431 29.7927 12.3214 29.4439 11.7155 28.8231C11.1096 28.2023 10.7692 27.3603 10.7692 26.4824V25.3789H17.2308V26.4824ZM25.8462 23.1721H2.15385V21.422L5.06908 18.435C5.27105 18.2281 5.38455 17.9475 5.38462 17.6549V13.2412C5.38462 10.9 6.2923 8.6547 7.908 6.99923C9.5237 5.34376 11.7151 4.41373 14 4.41373C16.2849 4.41373 18.4763 5.34376 20.092 6.99923C21.7077 8.6547 22.6154 10.9 22.6154 13.2412V17.6549C22.6154 17.9475 22.7289 18.2281 22.9309 18.435L25.8462 21.422V23.1721Z" stroke="black"/>
</svg>
