
<svg width="48" height="48" viewBox="0 0 48 48" fill="none" xmlns="http://www.w3.org/2000/svg">
<path d="M24 0C19.2533 0 14.6131 1.40758 10.6663 4.04473C6.71954 6.68188 3.6434 10.4302 1.8269 14.8156C0.0103984 19.201 -0.464881 24.0266 0.461164 28.6822C1.38721 33.3377 3.67299 37.6141 7.02945 40.9706C10.3859 44.327 14.6623 46.6128 19.3178 47.5388C23.9734 48.4649 28.799 47.9896 33.1844 46.1731C37.5698 44.3566 41.3181 41.2805 43.9553 37.3337C46.5924 33.3869 48 28.7467 48 24C47.9873 17.6387 45.4547 11.5416 40.9566 7.04345C36.4584 2.54532 30.3613 0.0126846 24 0ZM46.056 23.04H34.536C34.32 14.832 31.2 7.296 25.872 1.992C31.216 2.45782 36.2089 4.84904 39.9217 8.72078C43.6345 12.5925 45.8144 17.6812 46.056 23.04ZM24 45.12C18.792 40.248 15.624 32.832 15.384 24.96H32.616C32.376 32.832 29.208 40.248 24 45.12ZM15.384 23.04C15.624 15.192 18.792 7.752 24 2.88C29.208 7.752 32.376 15.192 32.616 23.04H15.384ZM22.152 1.992C16.8 7.296 13.68 14.832 13.464 23.04H1.94401C2.18624 17.6774 4.36959 12.5857 8.08734 8.71339C11.8051 4.84111 16.8037 2.45231 22.152 1.992ZM1.94401 24.96H13.464C13.68 33.192 16.8 40.728 22.152 46.008C16.8037 45.5477 11.8051 43.1589 8.08734 39.2866C4.36959 35.4143 2.18624 30.3226 1.94401 24.96ZM25.872 46.008C31.2 40.728 34.32 33.192 34.536 24.96H46.056C45.8144 30.3188 43.6345 35.4075 39.9217 39.2792C36.2089 43.151 31.216 45.5422 25.872 46.008Z" fill="white"/>
</svg>
