<svg width="36" height="48" viewBox="0 0 36 48" fill="none" xmlns="http://www.w3.org/2000/svg">
<path d="M36 32.8889C36 34.1729 35.6987 35.4444 35.1134 36.6307C34.5281 37.817 33.6702 38.8949 32.5887 39.8028C31.5071 40.7108 30.2232 41.431 28.8101 41.9224C27.397 42.4138 25.8825 42.6667 24.3529 42.6667H19.0588V47.1111C19.0588 47.3469 18.9473 47.573 18.7487 47.7397C18.5501 47.9063 18.2808 48 18 48C17.7192 48 17.4499 47.9063 17.2513 47.7397C17.0527 47.573 16.9412 47.3469 16.9412 47.1111V42.6667H11.6471C8.55807 42.6667 5.59559 41.6365 3.41134 39.8028C1.2271 37.9691 0 35.4821 0 32.8889C0 32.6531 0.111555 32.427 0.310122 32.2603C0.50869 32.0937 0.778006 32 1.05882 32C1.33964 32 1.60896 32.0937 1.80753 32.2603C2.00609 32.427 2.11765 32.6531 2.11765 32.8889C2.11765 35.0106 3.12164 37.0455 4.90875 38.5457C6.69586 40.046 9.1197 40.8889 11.6471 40.8889H24.3529C26.8803 40.8889 29.3041 40.046 31.0913 38.5457C32.8784 37.0455 33.8824 35.0106 33.8824 32.8889C33.8824 30.7672 32.8784 28.7323 31.0913 27.232C29.3041 25.7317 26.8803 24.8889 24.3529 24.8889H12.7059C9.61689 24.8889 6.65441 23.8587 4.47017 22.025C2.28592 20.1914 1.05882 17.7043 1.05882 15.1111C1.05882 12.5179 2.28592 10.0309 4.47017 8.19718C6.65441 6.36349 9.61689 5.33333 12.7059 5.33333H16.9412V0.888889C16.9412 0.653141 17.0527 0.427049 17.2513 0.26035C17.4499 0.0936507 17.7192 0 18 0C18.2808 0 18.5501 0.0936507 18.7487 0.26035C18.9473 0.427049 19.0588 0.653141 19.0588 0.888889V5.33333H22.2353C25.3243 5.33333 28.2868 6.36349 30.471 8.19718C32.6553 10.0309 33.8824 12.5179 33.8824 15.1111C33.8824 15.3469 33.7708 15.573 33.5722 15.7397C33.3737 15.9064 33.1043 16 32.8235 16C32.5427 16 32.2734 15.9064 32.0748 15.7397C31.8763 15.573 31.7647 15.3469 31.7647 15.1111C31.7647 12.9894 30.7607 10.9545 28.9736 9.45426C27.1865 7.95397 24.7627 7.11111 22.2353 7.11111H12.7059C10.1785 7.11111 7.75468 7.95397 5.96757 9.45426C4.18046 10.9545 3.17647 12.9894 3.17647 15.1111C3.17647 17.2328 4.18046 19.2677 5.96757 20.768C7.75468 22.2683 10.1785 23.1111 12.7059 23.1111H24.3529C25.8825 23.1111 27.397 23.364 28.8101 23.8554C30.2232 24.3468 31.5071 25.067 32.5887 25.975C33.6702 26.8829 34.5281 27.9608 35.1134 29.1471C35.6987 30.3334 36 31.6049 36 32.8889Z" fill="white"/>
</svg>