
<svg width="40" height="48" viewBox="0 0 40 48" fill="none" xmlns="http://www.w3.org/2000/svg">
<path d="M37.1429 3.69387H28.0714C27.0909 2.53883 25.8586 1.60857 24.463 0.969898C23.0675 0.331228 21.5433 0 20 0C18.4567 0 16.9325 0.331228 15.537 0.969898C14.1414 1.60857 12.9091 2.53883 11.9286 3.69387H2.85714C2.09938 3.69387 1.37266 3.98562 0.836837 4.50493C0.301019 5.02425 0 5.72859 0 6.46301V45.2309C0 45.9653 0.301019 46.6696 0.836837 47.1889C1.37266 47.7083 2.09938 48 2.85714 48H37.1429C37.9006 48 38.6273 47.7083 39.1632 47.1889C39.699 46.6696 40 45.9653 40 45.2309V6.46301C40 5.72859 39.699 5.02425 39.1632 4.50493C38.6273 3.98562 37.9006 3.69387 37.1429 3.69387ZM20 1.84778C22.2733 1.84778 24.4535 2.72303 26.0609 4.28096C27.6684 5.8389 28.5714 7.95192 28.5714 10.1552V11.0782H11.4286V10.1552C11.4286 7.95192 12.3316 5.8389 13.9391 4.28096C15.5465 2.72303 17.7267 1.84778 20 1.84778ZM38.0952 45.2309C38.0952 45.4757 37.9949 45.7105 37.8163 45.8836C37.6377 46.0567 37.3954 46.1539 37.1429 46.1539H2.85714C2.60456 46.1539 2.36231 46.0567 2.18371 45.8836C2.0051 45.7105 1.90476 45.4757 1.90476 45.2309V6.46301C1.90476 6.2182 2.0051 5.98342 2.18371 5.81032C2.36231 5.63721 2.60456 5.53996 2.85714 5.53996H10.6667C9.90966 6.96739 9.5177 8.55025 9.52381 10.1552V12.0013C9.52381 12.2461 9.62415 12.4809 9.80275 12.654C9.98136 12.8271 10.2236 12.9243 10.4762 12.9243H29.5238C29.7764 12.9243 30.0186 12.8271 30.1972 12.654C30.3759 12.4809 30.4762 12.2461 30.4762 12.0013V10.1552C30.4823 8.55025 30.0903 6.96739 29.3333 5.53996H37.1429C37.3954 5.53996 37.6377 5.63721 37.8163 5.81032C37.9949 5.98342 38.0952 6.2182 38.0952 6.46301V45.2309Z" fill="white"/>
</svg>
