<?xml version="1.0" encoding="UTF-8"?>
<svg width="160px" height="133px" viewBox="0 0 160 133" version="1.1" xmlns="http://www.w3.org/2000/svg" xmlns:xlink="http://www.w3.org/1999/xlink">
    <!-- Generator: sketchtool 63.1 (101010) - https://sketch.com -->
    <title>EACA5CC0-4B3C-47E0-9EEC-ADCF31BD881B</title>
    <desc>Created with sketchtool.</desc>
    <defs>
        <linearGradient x1="50%" y1="100%" x2="50%" y2="0%" id="linearGradient-1">
            <stop stop-color="#808080" stop-opacity="0.25" offset="0%"></stop>
            <stop stop-color="#808080" stop-opacity="0.12" offset="54%"></stop>
            <stop stop-color="#808080" stop-opacity="0.1" offset="100%"></stop>
        </linearGradient>
        <linearGradient x1="50%" y1="100%" x2="50%" y2="8.86848147e-15%" id="linearGradient-2">
            <stop stop-color="#808080" stop-opacity="0.25" offset="0%"></stop>
            <stop stop-color="#808080" stop-opacity="0.12" offset="54%"></stop>
            <stop stop-color="#808080" stop-opacity="0.1" offset="100%"></stop>
        </linearGradient>
        <linearGradient x1="49.9982618%" y1="100%" x2="49.9982618%" y2="0%" id="linearGradient-3">
            <stop stop-color="#808080" stop-opacity="0.25" offset="0%"></stop>
            <stop stop-color="#808080" stop-opacity="0.12" offset="54%"></stop>
            <stop stop-color="#808080" stop-opacity="0.1" offset="100%"></stop>
        </linearGradient>
        <linearGradient x1="50%" y1="100%" x2="50%" y2="0%" id="linearGradient-4">
            <stop stop-color="#808080" stop-opacity="0.25" offset="0%"></stop>
            <stop stop-color="#808080" stop-opacity="0.12" offset="54%"></stop>
            <stop stop-color="#808080" stop-opacity="0.1" offset="100%"></stop>
        </linearGradient>
    </defs>
    <g id="Error-Pages" stroke="none" stroke-width="1" fill="none" fill-rule="evenodd">
        <g id="502-Error" transform="translate(-561.000000, -178.000000)">
            <g id="undraw_server_q2pb" transform="translate(561.000000, 178.000000)">
                <rect id="Rectangle" fill="url(#linearGradient-1)" fill-rule="nonzero" x="0.5" y="0.5" width="72" height="80"></rect>
                <rect id="Rectangle" fill="#FFFFFF" fill-rule="nonzero" x="2.5" y="53.5" width="69" height="25"></rect>
                <rect id="Rectangle" fill="#6B6C7E" fill-rule="nonzero" x="7.5" y="59.5" width="3" height="13"></rect>
                <g id="Group" opacity="0.7" transform="translate(13.500000, 59.500000)" fill="#6B6C7E" fill-rule="nonzero">
                    <rect id="Rectangle" x="0.142941176" y="0.0105405405" width="2.71764706" height="12.8243243"></rect>
                </g>
                <g id="Group" opacity="0.6" transform="translate(18.500000, 59.500000)" fill="#6B6C7E" fill-rule="nonzero">
                    <rect id="Rectangle" x="0.04125" y="0.0105405405" width="2.8875" height="12.8243243"></rect>
                </g>
                <g id="Group" opacity="0.5" transform="translate(23.500000, 59.500000)" fill="#6B6C7E" fill-rule="nonzero">
                    <rect id="Rectangle" x="0.109411765" y="0.0105405405" width="2.71764706" height="12.8243243"></rect>
                </g>
                <g id="Group" opacity="0.5" transform="translate(29.500000, 59.500000)" fill="#6B6C7E" fill-rule="nonzero">
                    <rect id="Rectangle" x="0.00375" y="0.0105405405" width="2.8875" height="12.8243243"></rect>
                </g>
                <g id="Group" opacity="0.4" transform="translate(34.500000, 59.500000)" fill="#6B6C7E" fill-rule="nonzero">
                    <rect id="Rectangle" x="0.07875" y="0.0105405405" width="2.8875" height="12.8243243"></rect>
                </g>
                <g id="Group" opacity="0.3" transform="translate(39.500000, 59.500000)" fill="#6B6C7E" fill-rule="nonzero">
                    <rect id="Rectangle" x="0.146470588" y="0.0105405405" width="2.71764706" height="12.8243243"></rect>
                </g>
                <circle id="Oval" fill="#0B5FFF" fill-rule="nonzero" cx="62" cy="66" r="6.5"></circle>
                <rect id="Rectangle" fill="#FFFFFF" fill-rule="nonzero" x="2.5" y="27.5" width="69" height="25"></rect>
                <rect id="Rectangle" fill="#6B6C7E" fill-rule="nonzero" x="7.5" y="33.5" width="3" height="13"></rect>
                <g id="Group" opacity="0.7" transform="translate(13.500000, 33.500000)" fill="#6B6C7E" fill-rule="nonzero">
                    <rect id="Rectangle" x="0.142941176" y="0.00878378378" width="2.71764706" height="12.8243243"></rect>
                </g>
                <g id="Group" opacity="0.6" transform="translate(18.500000, 33.500000)" fill="#6B6C7E" fill-rule="nonzero">
                    <rect id="Rectangle" x="0.04125" y="0.00878378378" width="2.8875" height="12.8243243"></rect>
                </g>
                <g id="Group" opacity="0.5" transform="translate(23.500000, 33.500000)" fill="#6B6C7E" fill-rule="nonzero">
                    <rect id="Rectangle" x="0.109411765" y="0.00878378378" width="2.71764706" height="12.8243243"></rect>
                </g>
                <g id="Group" opacity="0.5" transform="translate(29.500000, 33.500000)" fill="#6B6C7E" fill-rule="nonzero">
                    <rect id="Rectangle" x="0.00375" y="0.00878378378" width="2.8875" height="12.8243243"></rect>
                </g>
                <g id="Group" opacity="0.4" transform="translate(34.500000, 33.500000)" fill="#6B6C7E" fill-rule="nonzero">
                    <rect id="Rectangle" x="0.07875" y="0.00878378378" width="2.8875" height="12.8243243"></rect>
                </g>
                <g id="Group" opacity="0.3" transform="translate(39.500000, 33.500000)" fill="#6B6C7E" fill-rule="nonzero">
                    <rect id="Rectangle" x="0.146470588" y="0.00878378378" width="2.71764706" height="12.8243243"></rect>
                </g>
                <circle id="Oval" fill="#0B5FFF" fill-rule="nonzero" cx="62" cy="40" r="6.5"></circle>
                <rect id="Rectangle" fill="#FFFFFF" fill-rule="nonzero" x="2.5" y="1.5" width="69" height="25"></rect>
                <rect id="Rectangle" fill="#6B6C7E" fill-rule="nonzero" x="7.5" y="7.5" width="3" height="13"></rect>
                <g id="Group" opacity="0.7" transform="translate(13.500000, 7.500000)" fill="#6B6C7E" fill-rule="nonzero">
                    <rect id="Rectangle" x="0.142941176" y="0.00878378378" width="2.71764706" height="12.8243243"></rect>
                </g>
                <g id="Group" opacity="0.6" transform="translate(18.500000, 7.500000)" fill="#6B6C7E" fill-rule="nonzero">
                    <rect id="Rectangle" x="0.04125" y="0.00878378378" width="2.8875" height="12.8243243"></rect>
                </g>
                <g id="Group" opacity="0.5" transform="translate(23.500000, 7.500000)" fill="#6B6C7E" fill-rule="nonzero">
                    <rect id="Rectangle" x="0.109411765" y="0.00878378378" width="2.71764706" height="12.8243243"></rect>
                </g>
                <g id="Group" opacity="0.5" transform="translate(29.500000, 7.500000)" fill="#6B6C7E" fill-rule="nonzero">
                    <rect id="Rectangle" x="0.00375" y="0.00878378378" width="2.8875" height="12.8243243"></rect>
                </g>
                <g id="Group" opacity="0.4" transform="translate(34.500000, 7.500000)" fill="#6B6C7E" fill-rule="nonzero">
                    <rect id="Rectangle" x="0.07875" y="0.00878378378" width="2.8875" height="12.8243243"></rect>
                </g>
                <g id="Group" opacity="0.3" transform="translate(39.500000, 7.500000)" fill="#6B6C7E" fill-rule="nonzero">
                    <rect id="Rectangle" x="0.146470588" y="0.00878378378" width="2.71764706" height="12.8243243"></rect>
                </g>
                <circle id="Oval" fill="url(#linearGradient-2)" fill-rule="nonzero" cx="61.5" cy="13.5" r="7"></circle>
                <circle id="Oval" fill="url(#linearGradient-2)" fill-rule="nonzero" cx="61.5" cy="40.5" r="7"></circle>
                <circle id="Oval" fill="url(#linearGradient-2)" fill-rule="nonzero" cx="61.5" cy="65.5" r="7"></circle>
                <circle id="Oval" fill="#DA1414" fill-rule="nonzero" cx="62" cy="14" r="6.5"></circle>
                <g id="Group" opacity="0.7" transform="translate(81.500000, 27.500000)" stroke="#0B5FFF" stroke-linecap="round" stroke-linejoin="round" stroke-width="4">
                    <line x1="0" y1="0.118011364" x2="1.04347826" y2="0.118011364" id="Path"></line>
                    <line x1="6.84869565" y1="0.118011364" x2="35.88" y2="0.118011364" id="Path" stroke-dasharray="12.52"></line>
                    <polyline id="Path" points="38.7826087 0.118011364 39.826087 0.118011364 39.826087 1.17482955"></polyline>
                    <line x1="39.826087" y1="6.77772727" x2="39.826087" y2="27.0844886" id="Path" stroke-dasharray="11.93"></line>
                    <line x1="39.826087" y1="29.8850568" x2="39.826087" y2="30.941875" id="Path"></line>
                </g>
                <g id="Group" opacity="0.7" transform="translate(25.500000, 84.500000)" stroke="#0B5FFF" stroke-linecap="round" stroke-linejoin="round" stroke-width="4">
                    <line x1="39.9269565" y1="22.7646923" x2="38.8834783" y2="22.7593846" id="Path"></line>
                    <line x1="33.0782609" y1="22.7310769" x2="4.04869565" y2="22.5895385" id="Path" stroke-dasharray="12.52"></line>
                    <polyline id="Path" points="1.14434783 22.5771538 0.100869565 22.5718462 0.107826087 21.5103077"></polyline>
                    <line x1="0.142608696" y1="16.0628462" x2="0.222608696" y2="3.80738462" id="Path" stroke-dasharray="11.55"></line>
                    <line x1="0.24" y1="1.08276923" x2="0.246956522" y2="0.0212307692" id="Path"></line>
                </g>
                <path d="M127.066667,110.5 C127.066667,110.5 129.157895,124.749557 141.5,129.5 L91.5,129.5 C103.842105,124.749557 105.933333,110.5 105.933333,110.5 L127.066667,110.5 Z" id="Path" fill="#E0E0E0" fill-rule="nonzero"></path>
                <rect id="Rectangle" fill="url(#linearGradient-3)" fill-rule="nonzero" x="91.5" y="129.5" width="50" height="3"></rect>
                <rect id="Rectangle" fill="#F5F5F5" fill-rule="nonzero" x="91.5" y="129.5" width="50" height="2"></rect>
                <path d="M157.612087,60.5 L76.3879132,60.5 C75.3452475,60.5 74.5,61.3403544 74.5,62.3769841 L74.5,113.254603 C74.5,114.494702 75.5111519,115.5 76.7584711,115.5 L157.241529,115.5 C157.840513,115.5 158.414964,115.263432 158.838509,114.842338 C159.262055,114.421245 159.5,113.850119 159.5,113.254603 L159.5,62.3769841 C159.5,61.3403544 158.654752,60.5 157.612087,60.5 Z" id="Path" fill="url(#linearGradient-4)" fill-rule="nonzero"></path>
                <path d="M77.3740972,60.5 L155.625904,60.5 C156.660938,60.5 157.5,61.3508001 157.5,62.4003151 L157.5,106.5 L75.5,106.5 L75.5,62.4020829 C75.5,61.8977817 75.6967828,61.4139749 76.0482942,61.0572143 C76.3998056,60.7004536 76.8767538,60.5 77.3740972,60.5 L77.3740972,60.5 Z" id="Path" fill="#FFFFFF" fill-rule="nonzero"></path>
                <path d="M155.258058,114.5 L77.7419423,114.5 C76.5037518,114.5 75.5,113.426819 75.5,112.102982 L75.5,106.5 L157.5,106.5 L157.5,112.102982 C157.5,113.426819 156.496248,114.5 155.258058,114.5 L155.258058,114.5 Z" id="Path" fill="#F5F5F5" fill-rule="nonzero"></path>
                <rect id="Rectangle" fill="#0B5FFF" fill-rule="nonzero" x="79.5" y="64.5" width="74" height="37"></rect>
                <polygon id="Path" fill="#FFFFFF" fill-rule="nonzero" opacity="0.2" points="82.3807236 66.9677235 153.5 66.9677235 153.5 64.5 79.5 64.5 79.5 101.5 82.3807236 101.5"></polygon>
            </g>
        </g>
    </g>
</svg>