<svg width="80" height="81" viewBox="0 0 80 81" fill="none" xmlns="http://www.w3.org/2000/svg">
<path d="M20.1602 54.7405V1H31.4532V23.6671H45.7602L38.0128 35.526H31.4532V54.7405H20.1602Z" fill="#F96513" stroke="black" stroke-width="0.276212"/>
<path d="M66.2853 5.57284L65.5981 59.3093L54.3059 59.1778L54.5957 36.5124L40.2899 36.3459L48.1883 24.578L54.7474 24.6544L54.9931 5.44136L66.2853 5.57284Z" fill="#E310E8" stroke="black" stroke-width="0.276212"/>
<path d="M5.91663 72.6587L5.88128 72.641C6.58838 70.284 7.52529 68.0154 8.69201 65.8352C10.3891 62.665 11.9918 61.0799 13.5003 61.0799C14.0542 61.0799 14.3312 61.3509 14.3312 61.893C14.3312 62.5412 13.9658 63.2837 13.2351 64.1204C12.6223 64.7922 11.9683 65.3343 11.2729 65.7468C10.7308 66.065 10.1062 66.3478 9.39911 66.5953C9.29305 66.6306 9.21645 66.6424 9.1693 66.6306C8.80397 67.2788 8.47399 67.9093 8.17936 68.5221C7.89652 69.135 7.64314 69.736 7.41922 70.3253C7.9142 69.3825 8.44452 68.587 9.01021 67.9388C9.82338 67.0078 10.5894 66.5423 11.3083 66.5423C11.8975 66.5423 12.1922 66.7544 12.1922 67.1786C12.1922 67.5911 11.7974 68.363 11.0078 69.4944C10.3125 70.4726 9.9648 71.2504 9.9648 71.8278C9.9648 72.1225 10.0944 72.2698 10.3537 72.2698C10.554 72.2698 10.7839 72.205 11.0431 72.0753C11.3024 71.9457 11.5735 71.7336 11.8563 71.4389C12.2216 71.0383 12.4986 70.667 12.6871 70.3253C12.8875 69.9835 13.0643 69.6712 13.2175 69.3883C13.2528 69.3294 13.2882 69.3058 13.3235 69.3176C13.3589 69.3294 13.3648 69.3648 13.3412 69.4237C13.1644 69.789 12.9523 70.172 12.7048 70.5727C12.4691 70.9616 12.2216 71.2916 11.9624 71.5627C11.6324 71.9162 11.3024 72.1578 10.9724 72.2875C10.6542 72.4171 10.3419 72.4819 10.0355 72.4819C9.4109 72.4819 9.09859 72.1814 9.09859 71.5804C9.09859 71.05 9.30483 70.4372 9.71731 69.7419C9.81159 69.5887 9.95301 69.3766 10.1416 69.1055C10.3419 68.8344 10.5894 68.5045 10.884 68.1156C11.2965 67.5617 11.5027 67.2022 11.5027 67.0372C11.5027 66.8251 11.3672 66.719 11.0962 66.719C10.5776 66.719 9.9589 67.1138 9.24002 67.9034C8.75683 68.4338 8.309 69.0525 7.89652 69.7596C7.70796 70.0778 7.5135 70.4549 7.31316 70.8909C7.11281 71.327 6.90068 71.822 6.67677 72.3759L6.64141 72.3935C6.54713 72.3346 6.45874 72.3051 6.37625 72.3051C6.16412 72.3051 6.01091 72.423 5.91663 72.6587ZM9.25769 66.4715C9.30483 66.4715 9.35197 66.4657 9.39911 66.4539C9.67017 66.3949 9.94712 66.3007 10.23 66.171C10.5246 66.0414 10.8192 65.8823 11.1138 65.6937C11.432 65.4816 11.7502 65.24 12.0684 64.9689C12.3866 64.6861 12.7048 64.3679 13.023 64.0144C13.8008 63.1658 14.1897 62.4469 14.1897 61.8577C14.1897 61.4452 13.9835 61.239 13.571 61.239C13.0289 61.239 12.2275 61.9697 11.1669 63.431C10.8487 63.8788 10.5246 64.3561 10.1946 64.8629C9.87641 65.3696 9.5641 65.9059 9.25769 66.4715ZM14.5911 72.535C14.0725 72.535 13.6777 72.311 13.4067 71.8632C13.1592 71.4861 13.0354 71.0265 13.0354 70.4844C13.0354 69.5533 13.3301 68.6871 13.9193 67.8857C14.5675 67.0137 15.3453 66.5776 16.2528 66.5776C16.7124 66.5776 17.0659 66.7367 17.3134 67.0549C17.5491 67.3613 17.667 67.7502 17.667 68.2216C17.667 68.4338 17.6434 68.6518 17.5963 68.8757C17.5609 69.0996 17.502 69.3353 17.4195 69.5828C17.2427 70.1013 17.0247 70.5079 16.7654 70.8026L16.8008 70.8556C16.9186 70.9381 17.06 70.9793 17.225 70.9793C17.5668 70.9793 17.8555 70.8674 18.0912 70.6435C18.3269 70.4195 18.5921 70.0188 18.8867 69.4414C18.8985 69.3942 18.9221 69.3707 18.9574 69.3707C18.981 69.3707 18.9987 69.3883 19.0105 69.4237C19.0223 69.4473 19.0164 69.4826 18.9928 69.5298C18.7453 70.0483 18.4801 70.4431 18.1973 70.7142C17.9262 70.9852 17.608 71.1207 17.2427 71.1207C17.007 71.1207 16.8243 71.0559 16.6947 70.9263C16.5769 71.1384 16.4472 71.3388 16.3058 71.5273C16.1644 71.7041 16.0053 71.8632 15.8285 72.0046C15.4278 72.3582 15.0153 72.535 14.5911 72.535ZM14.7148 72.3935C15.3394 72.3935 15.9522 71.9162 16.5533 70.9616C16.5533 70.9263 16.571 70.8909 16.6063 70.8556C16.3942 70.502 16.2881 70.1662 16.2881 69.848C16.2881 69.8362 16.2881 69.8126 16.2881 69.7773C16.2881 69.7301 16.294 69.6712 16.3058 69.6005C16.3176 69.4708 16.3412 69.3412 16.3765 69.2116C16.4119 69.0701 16.4708 68.9405 16.5533 68.8227C16.7301 68.5398 16.9422 68.3984 17.1897 68.3984H17.3488C17.3959 68.4102 17.4313 68.4161 17.4548 68.4161C17.4784 68.4161 17.4961 68.4161 17.5079 68.4161C17.5079 67.3554 17.172 66.8251 16.5003 66.8251C15.9346 66.8251 15.3983 67.1669 14.8916 67.8504C14.4791 68.3925 14.1845 68.9994 14.0077 69.6712C13.9016 70.0365 13.8486 70.4195 13.8486 70.8202C13.8486 71.8691 14.1373 72.3935 14.7148 72.3935ZM19.6335 72.4289C18.7967 72.4289 18.3784 72.0164 18.3784 71.1915C18.3784 70.5433 18.6199 69.7242 19.1031 68.7343C19.1267 68.6871 19.2387 68.4809 19.439 68.1156C19.6511 67.7384 19.9517 67.2022 20.3406 66.5069H19.4213L19.386 66.4715L19.4037 66.3655L19.4213 66.3478H20.429L21.7017 64.1204C21.8078 64.1676 21.9315 64.1911 22.073 64.1911C22.238 64.1911 22.4147 64.1322 22.6033 64.0144C22.8036 63.9083 22.9392 63.7904 23.0099 63.6608L23.0629 63.6785L21.4719 66.3478H22.6917L22.7094 66.3655V66.4715L22.674 66.5069H21.3835L20.1815 68.6282C19.4626 69.8892 19.1031 70.8615 19.1031 71.545C19.1031 72.0282 19.2917 72.2698 19.6688 72.2698C20.2581 72.2698 20.8532 71.9398 21.4543 71.2798C21.6192 71.1031 21.8137 70.8379 22.0376 70.4844C22.2615 70.1308 22.4501 69.7949 22.6033 69.4767C22.6269 69.4178 22.6563 69.4001 22.6917 69.4237C22.7388 69.4355 22.7506 69.4708 22.727 69.5298C22.5503 69.8833 22.3617 70.2192 22.1614 70.5374C21.9728 70.8556 21.7548 71.1502 21.5073 71.4213C20.8945 72.093 20.2699 72.4289 19.6335 72.4289ZM23.8219 72.5526C23.2445 72.5526 22.8438 72.3935 22.6199 72.0753C22.396 71.7454 22.284 71.2857 22.284 70.6965C22.284 69.848 22.6375 68.9641 23.3447 68.0448C24.0989 67.0785 24.8826 66.5953 25.6958 66.5953C26.2968 66.5953 26.5973 66.8015 26.5973 67.214C26.5973 67.7208 26.3204 68.2511 25.7665 68.805C24.9769 69.6064 24.146 70.0071 23.2739 70.0071C23.1325 70.3724 23.0618 70.7377 23.0618 71.1031C23.0618 71.5038 23.1384 71.8161 23.2916 72.04C23.4448 72.2639 23.6687 72.3759 23.9634 72.3759C24.2698 72.3759 24.588 72.2934 24.918 72.1284C25.2479 71.9516 25.5308 71.7454 25.7665 71.5097C25.9668 71.3093 26.1907 71.0383 26.4382 70.6965C26.6975 70.3429 26.9568 69.9128 27.216 69.406C27.2514 69.3471 27.2868 69.3176 27.3221 69.3176C27.3928 69.3176 27.3928 69.3766 27.3221 69.4944C27.1218 69.8951 26.9037 70.2781 26.668 70.6435C26.4441 71.0088 26.1436 71.3623 25.7665 71.7041C25.5426 71.928 25.2597 72.1284 24.918 72.3051C24.5762 72.4701 24.2109 72.5526 23.8219 72.5526ZM23.2916 69.8833C23.9398 69.8833 24.6646 69.5357 25.466 68.8403V68.8227C25.6899 68.6341 25.902 68.3748 26.1024 68.0448C26.3381 67.6795 26.4559 67.3672 26.4559 67.1079C26.4559 66.9194 26.3145 66.8251 26.0316 66.8251C25.5838 66.8251 25.0417 67.2258 24.4053 68.0272C24.1107 68.3807 23.875 68.7107 23.6982 69.0171C23.5214 69.3235 23.3859 69.6123 23.2916 69.8833ZM28.379 72.5173C27.4244 72.5173 26.9471 71.8868 26.9471 70.6258C26.9471 69.8715 27.1121 68.9935 27.4421 67.9918C27.5953 67.5322 27.7603 67.0903 27.9371 66.666C28.1139 66.2417 28.3024 65.8469 28.5028 65.4816C28.7503 65.0338 29.0095 64.6095 29.2806 64.2088C29.5516 63.7963 29.8404 63.4074 30.1468 63.0421C31.0307 61.9461 31.7849 61.3981 32.4095 61.3981C32.6688 61.3981 32.7984 61.5218 32.7984 61.7693C32.7984 62.0993 32.6629 62.606 32.3918 63.2896C31.4844 65.5405 30.0113 67.5911 27.9724 69.4414C27.7721 70.1838 27.6719 70.779 27.6719 71.2268C27.6719 71.9928 27.9135 72.3759 28.3967 72.3759C28.5617 72.3759 28.7208 72.3464 28.874 72.2875C29.0272 72.2168 29.1627 72.1402 29.2806 72.0577C29.5988 71.8102 29.8698 71.5214 30.0938 71.1915C30.3177 70.8615 30.5121 70.5315 30.6771 70.2015C30.8421 69.8715 30.9894 69.5946 31.1191 69.3707C31.1544 69.3117 31.1898 69.2941 31.2251 69.3176C31.2605 69.3294 31.2664 69.3648 31.2428 69.4237C31.0071 69.9187 30.7478 70.4254 30.465 70.944C30.1821 71.4625 29.8227 71.875 29.3867 72.1814C29.0685 72.4053 28.7326 72.5173 28.379 72.5173ZM28.0255 69.2646C28.2612 69.0643 28.5087 68.8168 28.7679 68.5221C29.0272 68.2275 29.3042 67.8916 29.5988 67.5145C29.8934 67.1374 30.1939 66.719 30.5003 66.2594C30.8068 65.7998 31.1132 65.3048 31.4196 64.7745C32.2445 63.3721 32.657 62.3939 32.657 61.84C32.657 61.6397 32.5922 61.5395 32.4626 61.5395C32.0265 61.5395 31.2487 62.4764 30.1291 64.3502C29.8345 64.8806 29.5693 65.3932 29.3336 65.8882C29.0508 66.5128 28.7974 67.1079 28.5735 67.6736C28.3614 68.2275 28.1787 68.7578 28.0255 69.2646ZM37.4146 72.4289C36.5779 72.4289 36.1595 72.0164 36.1595 71.1915C36.1595 70.5433 36.4011 69.7242 36.8843 68.7343C36.9079 68.6871 37.0198 68.4809 37.2202 68.1156C37.4323 67.7384 37.7328 67.2022 38.1217 66.5069H37.2025L37.1671 66.4715L37.1848 66.3655L37.2025 66.3478H38.2101L39.4829 64.1204C39.589 64.1676 39.7127 64.1911 39.8541 64.1911C40.0191 64.1911 40.1959 64.1322 40.3845 64.0144C40.5848 63.9083 40.7203 63.7904 40.791 63.6608L40.8441 63.6785L39.2531 66.3478H40.4728L40.4905 66.3655V66.4715L40.4552 66.5069H39.1647L37.9626 68.6282C37.2437 69.8892 36.8843 70.8615 36.8843 71.545C36.8843 72.0282 37.0729 72.2698 37.45 72.2698C38.0392 72.2698 38.6344 71.9398 39.2354 71.2798C39.4004 71.1031 39.5949 70.8379 39.8188 70.4844C40.0427 70.1308 40.2313 69.7949 40.3845 69.4767C40.408 69.4178 40.4375 69.4001 40.4728 69.4237C40.52 69.4355 40.5318 69.4708 40.5082 69.5298C40.3314 69.8833 40.1429 70.2192 39.9425 70.5374C39.754 70.8556 39.5359 71.1502 39.2884 71.4213C38.6756 72.093 38.051 72.4289 37.4146 72.4289ZM42.1158 72.4466C41.4086 72.4466 41.0551 72.1343 41.0551 71.5097C41.0551 71.0147 41.2496 70.449 41.6385 69.8126C41.7681 69.5887 42.1275 69.0878 42.7168 68.31C43.1057 67.7915 43.3001 67.4261 43.3001 67.214C43.3001 67.0137 43.1352 66.9135 42.8052 66.9135C42.5813 66.9135 42.3338 66.9194 42.0627 66.9312C41.8034 66.9429 41.5913 66.9547 41.4263 66.9665C41.391 67.1551 41.3379 67.3731 41.2672 67.6206C41.1965 67.8681 41.114 68.1273 41.0197 68.3984C40.9608 68.5634 40.8665 68.7873 40.7369 69.0701C40.6191 69.353 40.46 69.6535 40.2596 69.9717C40.2243 70.0188 40.1948 70.0424 40.1712 70.0424C40.1594 70.0424 40.1535 70.0306 40.1535 70.0071C40.1535 69.9481 40.1771 69.8715 40.2243 69.7773C40.3185 69.6123 40.4246 69.4119 40.5424 69.1762C40.6603 68.9287 40.7723 68.6577 40.8783 68.363C40.9726 68.1038 41.0551 67.8327 41.1258 67.5499C41.2083 67.2552 41.2554 67.0549 41.2672 66.9488C40.9844 66.7721 40.843 66.5069 40.843 66.1533C40.843 65.7527 40.9844 65.5523 41.2672 65.5523C41.4676 65.5523 41.5677 65.735 41.5677 66.1003C41.5677 66.1828 41.556 66.283 41.5324 66.4008C41.5088 66.5187 41.4794 66.6601 41.444 66.8251C41.609 66.8133 41.8683 66.8015 42.2218 66.7897C42.5872 66.7662 42.9348 66.7544 43.2648 66.7544C43.8658 66.7544 44.1664 66.9371 44.1664 67.3024C44.1664 67.6913 43.7008 68.4927 42.7698 69.7065C42.5695 70.0012 42.3456 70.337 42.0981 70.7142C41.8624 71.0795 41.7445 71.4566 41.7445 71.8455C41.7445 71.9516 41.7681 72.0518 41.8152 72.146C41.8624 72.2403 41.9625 72.2875 42.1158 72.2875C42.6225 72.2875 43.1823 71.9811 43.7951 71.3682C44.1015 71.0618 44.3844 70.7318 44.6436 70.3783C44.9029 70.0247 45.1386 69.6299 45.3507 69.1939C45.3979 69.0996 45.4391 69.0525 45.4745 69.0525C45.4981 69.0525 45.5098 69.0701 45.5098 69.1055C45.5098 69.1644 45.4922 69.2292 45.4568 69.3C45.2565 69.7124 45.0149 70.1131 44.732 70.502C44.4492 70.8792 44.1369 71.2386 43.7951 71.5804C43.2177 72.1578 42.6579 72.4466 42.1158 72.4466ZM49.3006 72.4289C48.6878 72.4289 48.3813 72.0046 48.3813 71.1561C48.3813 70.8261 48.4344 70.449 48.5404 70.0247C47.7155 71.6157 46.8964 72.4112 46.0833 72.4112C45.6944 72.4112 45.3997 72.2168 45.1994 71.8278C45.0344 71.5332 44.9519 71.162 44.9519 70.7142C44.9519 70.3488 45.0049 69.9658 45.111 69.5651C45.3113 68.8698 45.7356 68.2157 46.3838 67.6029C47.1027 66.9429 47.7862 66.613 48.4344 66.613C49.0236 66.613 49.3183 66.9665 49.3183 67.6736C49.3183 67.98 49.2534 68.3395 49.1238 68.752L50.2021 66.6306H50.2552C50.2905 66.6896 50.3671 66.719 50.485 66.719C50.7207 66.719 51.0212 66.5776 51.3865 66.2948L51.4219 66.3301L49.9193 69.2646C49.3183 70.4313 49.0177 71.3152 49.0177 71.9162C49.0177 72.1519 49.1238 72.2698 49.3359 72.2698C49.4774 72.2698 49.6482 72.2168 49.8486 72.1107C50.0489 72.0046 50.2611 71.8278 50.485 71.5804C50.7678 71.2504 51.0094 70.9381 51.2098 70.6435C51.4219 70.337 51.6635 69.9246 51.9345 69.406C51.9699 69.3471 52.0053 69.3176 52.0406 69.3176C52.1113 69.3176 52.1113 69.3766 52.0406 69.4944C51.8285 69.8951 51.5987 70.2958 51.3512 70.6965C51.1155 71.0854 50.8267 71.4507 50.485 71.7925C50.0607 72.2168 49.6659 72.4289 49.3006 72.4289ZM46.154 72.2875C46.8139 72.2875 47.6625 71.3564 48.6995 69.4944C49.0295 68.9052 49.1945 68.31 49.1945 67.709C49.1945 67.0726 48.9883 66.7544 48.5758 66.7544C48.128 66.7544 47.6212 67.1256 47.0555 67.8681C46.8316 68.1745 46.6372 68.475 46.4722 68.7696C46.319 69.0643 46.1952 69.3471 46.1009 69.6182C45.8535 70.3253 45.7297 70.9616 45.7297 71.5273C45.7297 72.0341 45.8711 72.2875 46.154 72.2875ZM52.6404 72.4642C51.9097 72.4642 51.5444 72.0046 51.5444 71.0854C51.5444 70.7083 51.6269 70.2722 51.7919 69.7773C51.8862 69.5298 52.057 69.1468 52.3045 68.6282C52.5638 68.1097 52.9056 67.4615 53.3298 66.6837H53.3652C53.4595 66.7426 53.5596 66.7721 53.6657 66.7721C53.9485 66.7721 54.2491 66.6542 54.5673 66.4185L54.5849 66.4539C54.255 66.7838 53.6893 67.6972 52.8879 69.1939C52.4165 70.1013 52.1808 70.9263 52.1808 71.6688C52.1808 72.1048 52.3222 72.3228 52.605 72.3228C53.3239 72.3228 54.1548 71.5509 55.0976 70.0071C54.968 69.7831 54.9031 69.4355 54.9031 68.9641C54.9031 68.8227 54.909 68.6812 54.9208 68.5398C54.9444 68.3866 54.968 68.2334 54.9915 68.0802C55.0269 67.8091 55.1153 67.5204 55.2567 67.214C55.4335 66.8015 55.6161 66.5953 55.8047 66.5953C56.0286 66.5953 56.1406 66.7897 56.1406 67.1786C56.1406 67.8622 55.8342 68.7932 55.2213 69.9717C55.2449 70.1249 55.3215 70.2899 55.4511 70.4667C55.5926 70.6435 55.7575 70.7318 55.9461 70.7318C56.4529 70.7318 56.9125 70.3135 57.325 69.4767C57.3603 69.406 57.3957 69.3825 57.431 69.406C57.4782 69.4296 57.4841 69.4708 57.4487 69.5298C57.2248 69.9658 56.995 70.2958 56.7593 70.5197C56.5354 70.7436 56.2702 70.8556 55.9638 70.8556C55.7988 70.8556 55.6397 70.8025 55.4865 70.6965C55.3451 70.5786 55.2272 70.4078 55.1329 70.1838C54.8619 70.7495 54.5319 71.2327 54.143 71.6334C53.6245 72.1873 53.1236 72.4642 52.6404 72.4642ZM58.5384 72.5526C57.9609 72.5526 57.5602 72.3935 57.3363 72.0753C57.1124 71.7454 57.0004 71.2857 57.0004 70.6965C57.0004 69.848 57.354 68.9641 58.0611 68.0448C58.8153 67.0785 59.599 66.5953 60.4122 66.5953C61.0132 66.5953 61.3137 66.8015 61.3137 67.214C61.3137 67.7208 61.0368 68.2511 60.4829 68.805C59.6933 69.6064 58.8624 70.0071 57.9904 70.0071C57.8489 70.3724 57.7782 70.7377 57.7782 71.1031C57.7782 71.5038 57.8548 71.8161 58.008 72.04C58.1612 72.2639 58.3852 72.3759 58.6798 72.3759C58.9862 72.3759 59.3044 72.2934 59.6344 72.1284C59.9644 71.9516 60.2472 71.7454 60.4829 71.5097C60.6832 71.3093 60.9072 71.0383 61.1546 70.6965C61.4139 70.3429 61.6732 69.9128 61.9325 69.406C61.9678 69.3471 62.0032 69.3176 62.0385 69.3176C62.1092 69.3176 62.1092 69.3766 62.0385 69.4944C61.8382 69.8951 61.6202 70.2781 61.3844 70.6435C61.1605 71.0088 60.86 71.3623 60.4829 71.7041C60.259 71.928 59.9761 72.1284 59.6344 72.3051C59.2926 72.4701 58.9273 72.5526 58.5384 72.5526ZM58.008 69.8833C58.6562 69.8833 59.381 69.5357 60.1824 68.8403V68.8227C60.4063 68.6341 60.6184 68.3748 60.8188 68.0448C61.0545 67.6795 61.1723 67.3672 61.1723 67.1079C61.1723 66.9194 61.0309 66.8251 60.7481 66.8251C60.3002 66.8251 59.7581 67.2258 59.1217 68.0272C58.8271 68.3807 58.5914 68.7107 58.4146 69.0171C58.2378 69.3235 58.1023 69.6123 58.008 69.8833ZM63.6258 72.4466C62.9187 72.4466 62.5651 72.1343 62.5651 71.5097C62.5651 71.0147 62.7596 70.449 63.1485 69.8126C63.2781 69.5887 63.6376 69.0878 64.2268 68.31C64.6157 67.7915 64.8102 67.4261 64.8102 67.214C64.8102 67.0137 64.6452 66.9135 64.3152 66.9135C64.0913 66.9135 63.8438 66.9194 63.5727 66.9312C63.3135 66.9429 63.1013 66.9547 62.9363 66.9665C62.901 67.1551 62.848 67.3731 62.7772 67.6206C62.7065 67.8681 62.624 68.1273 62.5298 68.3984C62.4708 68.5634 62.3766 68.7873 62.2469 69.0701C62.1291 69.353 61.97 69.6535 61.7696 69.9717C61.7343 70.0188 61.7048 70.0424 61.6812 70.0424C61.6695 70.0424 61.6636 70.0306 61.6636 70.0071C61.6636 69.9481 61.6871 69.8715 61.7343 69.7773C61.8286 69.6123 61.9346 69.4119 62.0525 69.1762C62.1703 68.9287 62.2823 68.6577 62.3883 68.363C62.4826 68.1038 62.5651 67.8327 62.6358 67.5499C62.7183 67.2552 62.7655 67.0549 62.7772 66.9488C62.4944 66.7721 62.353 66.5069 62.353 66.1533C62.353 65.7527 62.4944 65.5523 62.7772 65.5523C62.9776 65.5523 63.0778 65.735 63.0778 66.1003C63.0778 66.1828 63.066 66.283 63.0424 66.4008C63.0188 66.5187 62.9894 66.6601 62.954 66.8251C63.119 66.8133 63.3783 66.8015 63.7318 66.7897C64.0972 66.7662 64.4448 66.7544 64.7748 66.7544C65.3759 66.7544 65.6764 66.9371 65.6764 67.3024C65.6764 67.6913 65.2109 68.4927 64.2798 69.7065C64.0795 70.0012 63.8556 70.337 63.6081 70.7142C63.3724 71.0795 63.2545 71.4566 63.2545 71.8455C63.2545 71.9516 63.2781 72.0518 63.3253 72.146C63.3724 72.2403 63.4726 72.2875 63.6258 72.2875C64.1325 72.2875 64.6923 71.9811 65.3051 71.3682C65.6116 71.0618 65.8944 70.7318 66.1537 70.3783C66.4129 70.0247 66.6486 69.6299 66.8608 69.1939C66.9079 69.0996 66.9492 69.0525 66.9845 69.0525C67.0081 69.0525 67.0199 69.0701 67.0199 69.1055C67.0199 69.1644 67.0022 69.2292 66.9668 69.3C66.7665 69.7124 66.5249 70.1131 66.2421 70.502C65.9592 70.8792 65.6469 71.2386 65.3051 71.5804C64.7277 72.1578 64.1679 72.4466 63.6258 72.4466ZM67.8231 72.588C66.6328 72.588 66.0377 72.0223 66.0377 70.8909C66.0377 70.5727 66.0907 70.231 66.1968 69.8656V69.8833C66.2557 69.6712 66.3676 69.4649 66.5326 69.2646C66.733 69.0171 66.9156 68.8934 67.0806 68.8934C67.0806 68.8934 67.0983 68.8934 67.1337 68.8934C67.169 68.8934 67.2279 68.9052 67.3104 68.9287L67.5049 68.6282C67.6699 68.3807 67.8172 68.1332 67.9468 67.8857C68.0883 67.6265 68.2356 67.3731 68.3888 67.1256C68.8248 66.3714 69.1548 65.9648 69.3787 65.9059C69.4494 65.8823 69.5025 65.8705 69.5378 65.8705C69.7146 65.8705 69.803 65.9353 69.803 66.065C69.803 66.2182 69.6733 66.3124 69.4141 66.3478C69.1784 66.3832 69.0311 66.4126 68.9721 66.4362C68.8779 66.5069 68.8307 66.6601 68.8307 66.8958C68.8307 67.1433 68.9898 67.5617 69.308 68.1509C69.6262 68.7284 69.7853 69.241 69.7853 69.6889C69.7853 69.8067 69.7735 69.9187 69.75 70.0247C69.7382 70.1308 69.7205 70.2428 69.6969 70.3606C69.3787 71.6923 68.5361 72.3582 67.169 72.3582C67.4401 72.4171 67.6876 72.4466 67.9115 72.4466C68.324 72.4466 68.7247 72.3759 69.1136 72.2344C69.5025 72.0812 69.8619 71.875 70.1919 71.6157C70.5337 71.3447 70.846 71.0206 71.1288 70.6435C71.4234 70.2545 71.6768 69.8421 71.8889 69.406C71.9243 69.3353 71.9596 69.3 71.995 69.3C72.0657 69.3 72.0716 69.3589 72.0127 69.4767C71.8241 69.8303 71.6238 70.1662 71.4116 70.4844C71.2113 70.7908 70.9933 71.0677 70.7576 71.3152C70.4747 71.598 70.0917 71.8809 69.6085 72.1637C69.1253 72.4466 68.5302 72.588 67.8231 72.588ZM67.0453 72.2168C67.6463 72.2168 68.1413 71.763 68.5302 70.8556C68.8484 70.1485 69.0075 69.4355 69.0075 68.7166C69.0075 68.6223 68.9898 68.4986 68.9545 68.3454C68.9309 68.1804 68.8896 67.9859 68.8307 67.762C68.7836 67.5499 68.7482 67.3672 68.7247 67.214C68.7011 67.049 68.6952 66.9076 68.707 66.7897C68.4831 67.2376 68.2591 67.6442 68.0352 68.0095C67.8113 68.3748 67.5992 68.7048 67.3988 68.9994C67.4578 69.0937 67.4872 69.188 67.4872 69.2823C67.4872 69.4473 67.4224 69.6299 67.2928 69.8303C67.2103 69.9481 67.0689 70.0601 66.8685 70.1662C66.6682 70.2722 66.5267 70.3724 66.4442 70.4667C66.3146 70.6552 66.2498 70.9027 66.2498 71.2091C66.2498 71.8809 66.515 72.2168 67.0453 72.2168ZM72.6424 72.5526C72.065 72.5526 71.6643 72.3935 71.4404 72.0753C71.2165 71.7454 71.1045 71.2857 71.1045 70.6965C71.1045 69.848 71.458 68.9641 72.1651 68.0448C72.9194 67.0785 73.7031 66.5953 74.5163 66.5953C75.1173 66.5953 75.4178 66.8015 75.4178 67.214C75.4178 67.7208 75.1409 68.2511 74.587 68.805C73.7974 69.6064 72.9665 70.0071 72.0944 70.0071C71.953 70.3724 71.8823 70.7377 71.8823 71.1031C71.8823 71.5038 71.9589 71.8161 72.1121 72.04C72.2653 72.2639 72.4892 72.3759 72.7839 72.3759C73.0903 72.3759 73.4085 72.2934 73.7385 72.1284C74.0684 71.9516 74.3513 71.7454 74.587 71.5097C74.7873 71.3093 75.0112 71.0383 75.2587 70.6965C75.518 70.3429 75.7773 69.9128 76.0365 69.406C76.0719 69.3471 76.1072 69.3176 76.1426 69.3176C76.2133 69.3176 76.2133 69.3766 76.1426 69.4944C75.9423 69.8951 75.7242 70.2781 75.4885 70.6435C75.2646 71.0088 74.9641 71.3623 74.587 71.7041C74.3631 71.928 74.0802 72.1284 73.7385 72.3051C73.3967 72.4701 73.0313 72.5526 72.6424 72.5526ZM72.1121 69.8833C72.7603 69.8833 73.4851 69.5357 74.2865 68.8403V68.8227C74.5104 68.6341 74.7225 68.3748 74.9229 68.0448C75.1586 67.6795 75.2764 67.3672 75.2764 67.1079C75.2764 66.9194 75.135 66.8251 74.8521 66.8251C74.4043 66.8251 73.8622 67.2258 73.2258 68.0272C72.9312 68.3807 72.6955 68.7107 72.5187 69.0171C72.3419 69.3235 72.2064 69.6123 72.1121 69.8833Z" fill="white"/>
</svg>
